<svg xmlns="http://www.w3.org/2000/svg" xmlns:xlink="http://www.w3.org/1999/xlink" width="400" zoomAndPan="magnify" viewBox="0 0 300 299.999988" height="400" preserveAspectRatio="xMidYMid meet" version="1.0"><defs><clipPath id="8df84cfbc0"><path d="M 144 1.257812 L 300 1.257812 L 300 288.507812 L 144 288.507812 Z M 144 1.257812 " clip-rule="nonzero"/></clipPath><clipPath id="e9d908fc57"><path d="M 155.769531 269.074219 C 156.535156 262.851562 161.417969 257.960938 166.519531 254.316406 C 171.78125 250.558594 177.578125 247.558594 183.679688 245.433594 C 180.070312 254.484375 173.292969 262.234375 164.808594 267.019531 C 169.113281 266.808594 173.414062 266.601562 177.714844 266.394531 C 178.398438 266.359375 179.132812 266.308594 179.664062 265.878906 C 180.414062 265.273438 180.476562 264.175781 180.546875 263.21875 C 181.414062 251.503906 191.898438 243.179688 201.472656 236.390625 C 199.171875 236.855469 198.347656 239.789062 198.648438 242.117188 C 198.945312 244.445312 199.878906 246.808594 199.257812 249.070312 C 198.847656 250.582031 197.789062 251.820312 196.761719 253.007812 C 193.382812 256.902344 190.003906 260.796875 186.625 264.695312 C 191.03125 261.832031 196.457031 260.585938 201.671875 261.238281 C 201.300781 251.402344 205.332031 241.488281 212.460938 234.707031 C 215.554688 231.761719 219.515625 228.753906 219.515625 224.480469 C 218.597656 229.984375 219.648438 235.632812 219.128906 241.191406 C 218.605469 246.742188 215.8125 252.785156 210.449219 254.308594 C 216.453125 252.023438 223.269531 248.835938 224.703125 242.570312 C 225.382812 239.589844 224.648438 236.480469 224.726562 233.429688 C 224.933594 225.746094 230.140625 219.234375 235.097656 213.367188 C 233.054688 217.140625 232.523438 221.707031 233.636719 225.851562 C 234.222656 228.042969 235.253906 230.136719 235.425781 232.398438 C 235.601562 234.660156 234.582031 237.261719 232.414062 237.914062 C 238.152344 234.015625 241.648438 227.023438 241.324219 220.089844 C 241.136719 216.003906 239.726562 211.898438 240.609375 207.902344 C 241.828125 202.382812 247.183594 198.273438 247.652344 192.640625 C 245.945312 198.070312 248.179688 203.839844 249.335938 209.414062 C 250.496094 214.992188 249.921875 221.988281 244.910156 224.6875 C 248.363281 221.839844 251.433594 218.519531 254.003906 214.855469 C 255.230469 213.105469 256.394531 211.03125 255.949219 208.945312 C 255.640625 207.503906 254.625 206.34375 253.804688 205.125 C 248.277344 196.894531 251.59375 185.863281 255.066406 176.578125 C 252.722656 178.746094 253.21875 182.664062 254.789062 185.449219 C 256.359375 188.230469 258.777344 190.507812 260.054688 193.4375 C 261.976562 197.84375 261.003906 202.953125 259.550781 207.539062 C 260.410156 204.289062 262.789062 201.710938 264.601562 198.878906 C 266.410156 196.046875 267.671875 192.355469 266.082031 189.394531 C 265.367188 188.054688 264.15625 187.0625 263.167969 185.910156 C 257.953125 179.828125 259.460938 170.679688 261.261719 162.867188 C 259.769531 165.574219 262.019531 168.839844 264.445312 170.75 C 266.871094 172.65625 269.863281 174.5 270.414062 177.542969 C 271.0625 181.152344 267.867188 184.476562 268.011719 188.136719 C 272.414062 182.632812 273.308594 174.550781 270.21875 168.210938 C 268.777344 165.25 266.582031 162.71875 264.992188 159.835938 C 263.398438 156.953125 262.4375 153.417969 263.699219 150.375 C 264.242188 149.070312 265.167969 147.929688 265.574219 146.574219 C 265.980469 145.214844 265.617188 143.441406 264.300781 142.933594 C 265.539062 147.238281 269.710938 149.878906 272.796875 153.117188 C 275.886719 156.359375 277.832031 162.023438 274.492188 165.007812 C 275.324219 160.984375 276.160156 156.964844 276.996094 152.945312 C 277.257812 151.675781 277.519531 150.335938 277.121094 149.101562 C 276.488281 147.128906 274.4375 146.054688 272.726562 144.882812 C 265.925781 140.230469 262.769531 130.867188 265.367188 123.039062 C 265.839844 127.21875 270.183594 129.589844 273.6875 131.90625 C 277.191406 134.222656 280.601562 138.648438 278.421875 142.238281 C 279.265625 135.804688 278.753906 127.820312 272.984375 124.855469 C 271.660156 124.175781 270.175781 123.847656 268.898438 123.085938 C 263.277344 119.734375 264.925781 110.925781 261.265625 105.496094 C 262.550781 109.425781 267.265625 110.757812 271.03125 112.46875 C 274.792969 114.179688 278.488281 118.722656 276 122.023438 C 276.679688 116.917969 277 110.835938 273.023438 107.566406 C 271.214844 106.082031 268.847656 105.515625 266.707031 104.574219 C 259.988281 101.621094 255.375 94.402344 255.519531 87.058594 C 256.921875 91.171875 261.898438 92.527344 266.042969 93.835938 C 270.1875 95.144531 274.902344 98.308594 274.074219 102.574219 C 273.050781 98.222656 271.777344 93.476562 268.109375 90.917969 C 265.425781 89.046875 261.984375 88.746094 258.914062 87.609375 C 253.234375 85.5 248.855469 80.21875 247.828125 74.242188 C 248.753906 77.675781 253.664062 77.046875 257.207031 77.304688 C 261.558594 77.621094 265.570312 80.726562 266.863281 85.390625 C 267.136719 80.761719 263.585938 76.667969 259.488281 74.511719 C 255.382812 72.363281 250.710938 71.636719 246.289062 70.265625 C 241.867188 68.894531 237.371094 66.597656 235.199219 62.507812 C 238.332031 64.117188 242.085938 63.113281 245.601562 62.910156 C 249.117188 62.703125 253.476562 64.125 253.953125 67.617188 C 252.375 63.582031 248.730469 60.421875 244.515625 59.425781 C 240.550781 58.488281 236.230469 59.367188 232.441406 57.859375 C 229.113281 56.53125 226.746094 53.582031 224.542969 50.75 C 225.835938 52.40625 228.378906 52.375 230.363281 51.695312 C 232.347656 51.015625 234.214844 49.84375 236.3125 49.703125 C 238.890625 49.539062 241.292969 50.972656 243.320312 52.578125 C 240.542969 49.941406 236.757812 48.410156 232.933594 48.375 C 230.535156 48.351562 228.152344 48.890625 225.757812 48.851562 C 220.6875 48.777344 215.746094 45.9375 213.125 41.589844 C 216.324219 42.890625 220.027344 44.179688 223.101562 42.597656 C 224.691406 41.777344 225.878906 40.273438 227.542969 39.617188 C 229.210938 38.964844 231.707031 39.929688 231.460938 41.699219 C 227.632812 38.398438 222.296875 36.917969 217.316406 37.785156 C 214.085938 38.347656 210.898438 39.832031 207.671875 39.269531 C 204.375 38.691406 201.839844 36.109375 199.550781 33.667969 C 201.890625 34.710938 204.636719 34.808594 207.046875 33.925781 C 208.4375 33.417969 209.726562 32.597656 211.179688 32.304688 C 214.957031 31.535156 218.410156 34.429688 221.1875 37.109375 C 219.757812 33.804688 216.011719 32.011719 212.421875 31.78125 C 208.832031 31.550781 205.296875 32.578125 201.800781 33.429688 C 198.304688 34.28125 194.621094 34.964844 191.140625 34.058594 C 189.550781 33.644531 187.761719 32.300781 188.285156 30.746094 C 191.054688 31.5 193.753906 29.617188 196.199219 28.117188 C 198.644531 26.617188 202.066406 25.519531 204.15625 27.472656 C 204.832031 28.101562 205.253906 28.972656 205.988281 29.523438 C 206.726562 30.074219 208.011719 30.089844 207.855469 29.328125 C 206.261719 27.316406 204.125 25.085938 201.601562 25.554688 C 200.382812 25.78125 199.382812 26.613281 198.3125 27.246094 C 195.230469 29.0625 191.484375 29.207031 187.914062 29.300781 C 183.960938 29.40625 179.726562 29.4375 176.414062 27.273438 C 178.542969 27.859375 180.890625 27.605469 182.839844 26.566406 C 185.109375 25.363281 186.738281 23.222656 188.914062 21.859375 C 191.085938 20.492188 194.425781 20.230469 195.832031 22.375 C 193.332031 20.960938 190.441406 19.503906 187.714844 20.398438 C 186.546875 20.78125 185.558594 21.5625 184.523438 22.234375 C 178.980469 25.816406 171.472656 26.09375 165.675781 22.941406 C 168.402344 23.722656 171.550781 22.769531 173.386719 20.601562 C 174.414062 19.390625 175.058594 17.84375 176.308594 16.867188 C 177.554688 15.882812 179.804688 15.890625 180.351562 17.382812 C 176.050781 16.667969 171.679688 16.378906 167.324219 16.519531 C 164.773438 16.601562 162.1875 16.828125 159.675781 16.363281 C 157.164062 15.898438 154.660156 14.617188 153.410156 12.382812 C 157.132812 14.003906 161.351562 12.34375 165.359375 11.703125 C 170.265625 10.921875 175.414062 11.761719 179.820312 14.066406 C 173.964844 12.953125 169.335938 7.253906 169.445312 1.292969 C 170.109375 4.417969 173.648438 5.816406 176.582031 7.074219 C 182.644531 9.667969 188.050781 13.78125 192.164062 18.9375 C 187.507812 14.320312 184.511719 8.054688 183.847656 1.527344 C 183.703125 3.574219 185.242188 5.398438 187.019531 6.417969 C 188.792969 7.4375 190.839844 7.882812 192.722656 8.695312 C 195.597656 9.933594 198.09375 12.054688 199.78125 14.695312 C 201.78125 17.824219 202.871094 21.863281 206.117188 23.679688 C 203.460938 21.457031 201.679688 18.210938 201.230469 14.773438 C 200.835938 11.742188 201.308594 8.257812 199.242188 6.011719 C 199.789062 9.320312 203.917969 10.332031 206.671875 12.230469 C 210.089844 14.582031 211.640625 18.75 213.324219 22.535156 C 215.011719 26.320312 217.4375 30.316406 221.433594 31.40625 C 218.082031 30.046875 215.886719 26.28125 216.347656 22.691406 C 216.484375 21.625 216.832031 20.578125 216.816406 19.503906 C 216.785156 17.652344 215.691406 15.980469 214.433594 14.621094 C 216.207031 17.679688 219.988281 18.890625 222.519531 21.355469 C 227.738281 26.445312 227.265625 36.367188 233.808594 39.570312 C 232.226562 38.441406 231.503906 36.382812 231.601562 34.441406 C 231.707031 32.503906 232.53125 30.667969 233.546875 29.015625 C 234.066406 28.164062 234.652344 27.308594 234.761719 26.316406 C 234.871094 25.328125 234.289062 24.175781 233.304688 24.058594 C 234.097656 25.246094 234.890625 26.433594 235.683594 27.617188 C 238.050781 31.160156 240.46875 34.832031 241.214844 39.023438 C 241.558594 40.980469 241.53125 43 241.996094 44.929688 C 242.464844 46.859375 243.585938 48.792969 245.433594 49.511719 C 244.46875 47.652344 243.480469 45.515625 244.183594 43.542969 C 244.753906 41.929688 246.296875 40.910156 247.355469 39.570312 C 248.414062 38.230469 248.8125 35.9375 247.359375 35.046875 C 247.542969 37.492188 249.664062 39.257812 250.964844 41.332031 C 253.242188 44.964844 252.988281 49.558594 253.242188 53.839844 C 253.5 58.121094 254.765625 62.960938 258.605469 64.871094 C 257.152344 63.121094 255.609375 60.839844 256.511719 58.746094 C 257.128906 57.3125 258.6875 56.566406 259.792969 55.460938 C 261.523438 53.730469 262.082031 50.917969 261.136719 48.652344 C 263.953125 52.449219 265.636719 57.078125 265.914062 61.796875 C 266.195312 66.558594 265.117188 71.554688 267.40625 76.335938 C 267.875 77.988281 268.339844 79.636719 268.808594 81.289062 C 267.214844 75.515625 268.957031 68.949219 273.195312 64.726562 C 274.882812 70.652344 276.589844 76.867188 275.3125 82.898438 C 274.734375 85.609375 273.574219 88.171875 273.042969 90.890625 C 272.511719 93.609375 272.722656 96.695312 274.570312 98.761719 C 274.066406 94.820312 275.960938 90.878906 278.695312 88.003906 C 281.433594 85.128906 284.941406 83.132812 288.390625 81.179688 C 286.375 82.691406 285.789062 85.472656 285.832031 87.996094 C 285.878906 90.519531 286.40625 93.054688 286.003906 95.546875 C 285.4375 99.019531 283.152344 101.925781 281.621094 105.097656 C 278.882812 110.777344 278.597656 117.285156 278.359375 123.585938 C 278.914062 119.3125 281.34375 115.457031 284.414062 112.4375 C 287.488281 109.417969 291.191406 107.128906 294.878906 104.90625 C 292.632812 106.082031 291.5625 108.710938 291.089844 111.203125 C 290.613281 113.695312 290.542969 116.304688 289.511719 118.621094 C 288.148438 121.671875 285.3125 123.785156 283.429688 126.546875 C 280.421875 130.976562 280.109375 136.640625 279.898438 141.996094 C 281.472656 137.140625 283.597656 131.789062 288.289062 129.78125 C 289.5625 129.234375 290.945312 128.984375 292.230469 128.46875 C 294.804688 127.433594 296.917969 125.300781 297.925781 122.714844 C 295.160156 125.863281 296.820312 130.878906 295.40625 134.820312 C 294.003906 138.726562 289.925781 140.851562 286.972656 143.765625 C 281.058594 149.59375 279.75 158.511719 278.835938 166.769531 C 279.320312 161.289062 284.828125 157.460938 290.253906 156.5625 C 292.238281 156.234375 294.289062 156.179688 296.179688 155.492188 C 298.066406 154.800781 299.832031 153.261719 300.023438 151.257812 C 297.746094 157.054688 295.335938 163.054688 290.785156 167.300781 C 288.277344 169.644531 285.238281 171.328125 282.554688 173.476562 C 277.320312 177.660156 273.535156 183.625 271.96875 190.140625 C 272.308594 187.28125 274.277344 184.824219 276.660156 183.207031 C 279.042969 181.59375 281.820312 180.699219 284.5625 179.820312 C 288.613281 178.523438 292.667969 177.222656 296.71875 175.925781 C 293.75 176.042969 292.667969 179.746094 291.445312 182.457031 C 289.066406 187.753906 283.671875 191.011719 278.3125 193.25 C 276.261719 194.109375 274.148438 194.878906 272.296875 196.117188 C 268.863281 198.40625 266.636719 202.074219 264.113281 206.632812 C 272.238281 200.789062 282.167969 197.503906 292.171875 197.339844 C 285.414062 202.386719 281.101562 210.671875 273.359375 214.023438 C 269.800781 215.5625 265.828125 215.894531 262.183594 217.230469 C 257.3125 219.019531 253.285156 222.507812 249.378906 225.921875 C 258.40625 219.214844 270.386719 218.480469 281.617188 217.996094 C 273.585938 219.265625 270.070312 229.089844 263.011719 233.121094 C 258.25 235.835938 252.453125 235.613281 246.988281 235.976562 C 241.527344 236.339844 235.472656 237.777344 232.53125 242.402344 C 237.421875 240.0625 242.746094 237.664062 248.0625 238.707031 C 250.925781 239.269531 253.511719 240.796875 256.347656 241.488281 C 259.183594 242.179688 262.664062 241.75 264.234375 239.285156 C 259.714844 242.058594 255.199219 244.828125 250.679688 247.597656 C 247.730469 249.40625 244.730469 251.238281 241.390625 252.132812 C 236.777344 253.367188 231.898438 252.722656 227.121094 252.757812 C 222.34375 252.796875 217.15625 253.746094 213.972656 257.3125 C 217.609375 256.035156 221.5 254.742188 225.25 255.628906 C 227.539062 256.171875 229.558594 257.480469 231.671875 258.507812 C 236.136719 260.671875 241.195312 261.585938 246.132812 261.132812 C 238.507812 262.828125 231.847656 268.355469 224.035156 268.554688 C 220.167969 268.652344 216.410156 267.414062 212.605469 266.707031 C 207.382812 265.734375 201.976562 265.765625 196.765625 266.796875 C 200.433594 265.960938 204.648438 265.234375 207.65625 267.496094 C 209.503906 268.894531 210.46875 271.148438 211.9375 272.9375 C 214.253906 275.777344 217.957031 277.421875 221.613281 277.238281 C 214.625 277.800781 207.535156 278.355469 200.652344 277.03125 C 190.984375 275.167969 181.597656 269.625 171.921875 271.449219 C 177.394531 271.246094 182.835938 274.546875 185.191406 279.496094 C 186.582031 282.414062 186.96875 285.796875 188.785156 288.46875 C 189.65625 286.714844 187.871094 284.640625 185.953125 284.28125 C 184.035156 283.914062 182.09375 284.605469 180.15625 284.886719 C 175.703125 285.523438 171.261719 283.933594 167.039062 282.371094 C 164.804688 281.546875 162.445312 280.628906 161.023438 278.714844 C 159.671875 276.902344 159.304688 274.351562 157.515625 272.96875 C 154.097656 270.335938 149.035156 274.085938 144.917969 272.808594 C 144.675781 271.703125 144.765625 270.527344 145.179688 269.472656 C 148.75 268.960938 152.378906 268.933594 155.769531 269.074219 Z M 155.769531 269.074219 " clip-rule="nonzero"/></clipPath><linearGradient x1="455.141989" gradientTransform="matrix(0.371634, 0, 0, 0.37194, -50.084442, -32.661169)" y1="442.030774" x2="1003.63088" gradientUnits="userSpaceOnUse" y2="549.804491" id="2691e52385"><stop stop-opacity="1" stop-color="rgb(78.819275%, 61.959839%, 36.468506%)" offset="0"/><stop stop-opacity="1" stop-color="rgb(78.819275%, 61.959839%, 36.468506%)" offset="0.03125"/><stop stop-opacity="1" stop-color="rgb(78.819275%, 61.959839%, 36.468506%)" offset="0.046875"/><stop stop-opacity="1" stop-color="rgb(78.912354%, 62.088013%, 36.53717%)" offset="0.0546875"/><stop stop-opacity="1" stop-color="rgb(79.240417%, 62.533569%, 36.775208%)" offset="0.0585938"/><stop stop-opacity="1" stop-color="rgb(79.475403%, 62.852478%, 36.946106%)" offset="0.0625"/><stop stop-opacity="1" stop-color="rgb(79.708862%, 63.171387%, 37.115479%)" offset="0.0664062"/><stop stop-opacity="1" stop-color="rgb(79.943848%, 63.490295%, 37.286377%)" offset="0.0703125"/><stop stop-opacity="1" stop-color="rgb(80.177307%, 63.809204%, 37.45575%)" offset="0.0742188"/><stop stop-opacity="1" stop-color="rgb(80.412292%, 64.128113%, 37.626648%)" offset="0.078125"/><stop stop-opacity="1" stop-color="rgb(80.645752%, 64.445496%, 37.796021%)" offset="0.0820313"/><stop stop-opacity="1" stop-color="rgb(80.880737%, 64.764404%, 37.966919%)" offset="0.0859375"/><stop stop-opacity="1" stop-color="rgb(81.114197%, 65.083313%, 38.136292%)" offset="0.0898438"/><stop stop-opacity="1" stop-color="rgb(81.349182%, 65.402222%, 38.30719%)" offset="0.09375"/><stop stop-opacity="1" stop-color="rgb(81.582642%, 65.719604%, 38.476562%)" offset="0.0976563"/><stop stop-opacity="1" stop-color="rgb(81.816101%, 66.038513%, 38.647461%)" offset="0.101563"/><stop stop-opacity="1" stop-color="rgb(82.049561%, 66.357422%, 38.816833%)" offset="0.105469"/><stop stop-opacity="1" stop-color="rgb(82.284546%, 66.676331%, 38.987732%)" offset="0.109375"/><stop stop-opacity="1" stop-color="rgb(82.518005%, 66.995239%, 39.157104%)" offset="0.113281"/><stop stop-opacity="1" stop-color="rgb(82.752991%, 67.314148%, 39.328003%)" offset="0.117188"/><stop stop-opacity="1" stop-color="rgb(83.000183%, 67.652893%, 39.508057%)" offset="0.121094"/><stop stop-opacity="1" stop-color="rgb(83.247375%, 67.993164%, 39.689636%)" offset="0.125"/><stop stop-opacity="1" stop-color="rgb(83.555603%, 68.432617%, 39.920044%)" offset="0.128906"/><stop stop-opacity="1" stop-color="rgb(83.863831%, 68.873596%, 40.151978%)" offset="0.132812"/><stop stop-opacity="1" stop-color="rgb(84.172058%, 69.314575%, 40.382385%)" offset="0.136719"/><stop stop-opacity="1" stop-color="rgb(84.480286%, 69.755554%, 40.614319%)" offset="0.140625"/><stop stop-opacity="1" stop-color="rgb(84.788513%, 70.195007%, 40.844727%)" offset="0.144531"/><stop stop-opacity="1" stop-color="rgb(85.096741%, 70.635986%, 41.07666%)" offset="0.148438"/><stop stop-opacity="1" stop-color="rgb(85.403442%, 71.075439%, 41.307068%)" offset="0.152344"/><stop stop-opacity="1" stop-color="rgb(85.71167%, 71.516418%, 41.537476%)" offset="0.15625"/><stop stop-opacity="1" stop-color="rgb(86.019897%, 71.955872%, 41.767883%)" offset="0.160156"/><stop stop-opacity="1" stop-color="rgb(86.328125%, 72.396851%, 41.999817%)" offset="0.164062"/><stop stop-opacity="1" stop-color="rgb(86.636353%, 72.836304%, 42.230225%)" offset="0.167969"/><stop stop-opacity="1" stop-color="rgb(86.94458%, 73.277283%, 42.462158%)" offset="0.171875"/><stop stop-opacity="1" stop-color="rgb(87.252808%, 73.716736%, 42.692566%)" offset="0.175781"/><stop stop-opacity="1" stop-color="rgb(87.561035%, 74.157715%, 42.922974%)" offset="0.179688"/><stop stop-opacity="1" stop-color="rgb(87.869263%, 74.597168%, 43.153381%)" offset="0.183594"/><stop stop-opacity="1" stop-color="rgb(88.17749%, 75.038147%, 43.385315%)" offset="0.1875"/><stop stop-opacity="1" stop-color="rgb(88.485718%, 75.4776%, 43.615723%)" offset="0.191406"/><stop stop-opacity="1" stop-color="rgb(88.793945%, 75.918579%, 43.847656%)" offset="0.195312"/><stop stop-opacity="1" stop-color="rgb(89.102173%, 76.358032%, 44.078064%)" offset="0.199219"/><stop stop-opacity="1" stop-color="rgb(89.4104%, 76.799011%, 44.309998%)" offset="0.203125"/><stop stop-opacity="1" stop-color="rgb(89.717102%, 77.23999%, 44.540405%)" offset="0.207031"/><stop stop-opacity="1" stop-color="rgb(90.02533%, 77.680969%, 44.770813%)" offset="0.210938"/><stop stop-opacity="1" stop-color="rgb(90.333557%, 78.120422%, 45.001221%)" offset="0.214844"/><stop stop-opacity="1" stop-color="rgb(90.641785%, 78.561401%, 45.233154%)" offset="0.21875"/><stop stop-opacity="1" stop-color="rgb(90.950012%, 79.000854%, 45.463562%)" offset="0.222656"/><stop stop-opacity="1" stop-color="rgb(91.25824%, 79.441833%, 45.695496%)" offset="0.226562"/><stop stop-opacity="1" stop-color="rgb(91.566467%, 79.881287%, 45.925903%)" offset="0.230469"/><stop stop-opacity="1" stop-color="rgb(91.874695%, 80.322266%, 46.156311%)" offset="0.234375"/><stop stop-opacity="1" stop-color="rgb(92.182922%, 80.761719%, 46.386719%)" offset="0.238281"/><stop stop-opacity="1" stop-color="rgb(92.49115%, 81.202698%, 46.618652%)" offset="0.242188"/><stop stop-opacity="1" stop-color="rgb(92.799377%, 81.642151%, 46.84906%)" offset="0.246094"/><stop stop-opacity="1" stop-color="rgb(93.107605%, 82.08313%, 47.080994%)" offset="0.25"/><stop stop-opacity="1" stop-color="rgb(93.415833%, 82.522583%, 47.311401%)" offset="0.253906"/><stop stop-opacity="1" stop-color="rgb(93.72406%, 82.963562%, 47.543335%)" offset="0.257812"/><stop stop-opacity="1" stop-color="rgb(94.042969%, 83.424377%, 47.779846%)" offset="0.261719"/><stop stop-opacity="1" stop-color="rgb(94.361877%, 83.885193%, 48.016357%)" offset="0.265625"/><stop stop-opacity="1" stop-color="rgb(94.699097%, 84.381104%, 48.265076%)" offset="0.269531"/><stop stop-opacity="1" stop-color="rgb(95.037842%, 84.877014%, 48.513794%)" offset="0.273438"/><stop stop-opacity="1" stop-color="rgb(95.375061%, 85.372925%, 48.762512%)" offset="0.277344"/><stop stop-opacity="1" stop-color="rgb(95.713806%, 85.868835%, 49.01123%)" offset="0.28125"/><stop stop-opacity="1" stop-color="rgb(96.051025%, 86.364746%, 49.258423%)" offset="0.285156"/><stop stop-opacity="1" stop-color="rgb(96.389771%, 86.862183%, 49.507141%)" offset="0.289062"/><stop stop-opacity="1" stop-color="rgb(96.72699%, 87.358093%, 49.755859%)" offset="0.292969"/><stop stop-opacity="1" stop-color="rgb(97.065735%, 87.854004%, 50.004578%)" offset="0.296875"/><stop stop-opacity="1" stop-color="rgb(97.402954%, 88.349915%, 50.25177%)" offset="0.300781"/><stop stop-opacity="1" stop-color="rgb(97.741699%, 88.845825%, 50.500488%)" offset="0.304688"/><stop stop-opacity="1" stop-color="rgb(98.078918%, 89.341736%, 50.749207%)" offset="0.308594"/><stop stop-opacity="1" stop-color="rgb(98.417664%, 89.839172%, 50.997925%)" offset="0.3125"/><stop stop-opacity="1" stop-color="rgb(98.754883%, 90.335083%, 51.245117%)" offset="0.316406"/><stop stop-opacity="1" stop-color="rgb(99.093628%, 90.830994%, 51.493835%)" offset="0.320312"/><stop stop-opacity="1" stop-color="rgb(99.430847%, 91.326904%, 51.742554%)" offset="0.324219"/><stop stop-opacity="1" stop-color="rgb(99.769592%, 91.822815%, 51.991272%)" offset="0.328125"/><stop stop-opacity="1" stop-color="rgb(99.884033%, 91.990662%, 52.326965%)" offset="0.332031"/><stop stop-opacity="1" stop-color="rgb(100%, 92.158508%, 52.662659%)" offset="0.335938"/><stop stop-opacity="1" stop-color="rgb(100%, 92.158508%, 53.044128%)" offset="0.339844"/><stop stop-opacity="1" stop-color="rgb(100%, 92.158508%, 53.425598%)" offset="0.34375"/><stop stop-opacity="1" stop-color="rgb(100%, 92.158508%, 53.805542%)" offset="0.347656"/><stop stop-opacity="1" stop-color="rgb(100%, 92.158508%, 54.187012%)" offset="0.351563"/><stop stop-opacity="1" stop-color="rgb(100%, 92.158508%, 54.568481%)" offset="0.355469"/><stop stop-opacity="1" stop-color="rgb(100%, 92.158508%, 54.949951%)" offset="0.359375"/><stop stop-opacity="1" stop-color="rgb(100%, 92.158508%, 55.329895%)" offset="0.363281"/><stop stop-opacity="1" stop-color="rgb(100%, 92.158508%, 55.711365%)" offset="0.367188"/><stop stop-opacity="1" stop-color="rgb(100%, 92.158508%, 56.092834%)" offset="0.371094"/><stop stop-opacity="1" stop-color="rgb(100%, 92.158508%, 56.474304%)" offset="0.375"/><stop stop-opacity="1" stop-color="rgb(100%, 92.158508%, 56.854248%)" offset="0.378906"/><stop stop-opacity="1" stop-color="rgb(100%, 92.158508%, 57.235718%)" offset="0.382813"/><stop stop-opacity="1" stop-color="rgb(100%, 92.158508%, 57.617188%)" offset="0.386719"/><stop stop-opacity="1" stop-color="rgb(100%, 92.158508%, 57.998657%)" offset="0.390625"/><stop stop-opacity="1" stop-color="rgb(100%, 92.158508%, 58.378601%)" offset="0.394531"/><stop stop-opacity="1" stop-color="rgb(100%, 92.158508%, 58.760071%)" offset="0.398438"/><stop stop-opacity="1" stop-color="rgb(100%, 92.158508%, 59.140015%)" offset="0.402344"/><stop stop-opacity="1" stop-color="rgb(100%, 92.158508%, 59.521484%)" offset="0.40625"/><stop stop-opacity="1" stop-color="rgb(100%, 92.158508%, 59.902954%)" offset="0.410156"/><stop stop-opacity="1" stop-color="rgb(100%, 92.158508%, 60.284424%)" offset="0.414063"/><stop stop-opacity="1" stop-color="rgb(100%, 92.158508%, 60.664368%)" offset="0.417969"/><stop stop-opacity="1" stop-color="rgb(100%, 92.158508%, 61.045837%)" offset="0.421875"/><stop stop-opacity="1" stop-color="rgb(100%, 92.158508%, 61.427307%)" offset="0.425781"/><stop stop-opacity="1" stop-color="rgb(100%, 92.158508%, 61.808777%)" offset="0.429688"/><stop stop-opacity="1" stop-color="rgb(100%, 92.158508%, 62.188721%)" offset="0.433594"/><stop stop-opacity="1" stop-color="rgb(100%, 92.158508%, 62.57019%)" offset="0.4375"/><stop stop-opacity="1" stop-color="rgb(100%, 92.158508%, 62.95166%)" offset="0.441406"/><stop stop-opacity="1" stop-color="rgb(100%, 92.158508%, 63.33313%)" offset="0.445313"/><stop stop-opacity="1" stop-color="rgb(100%, 92.158508%, 63.713074%)" offset="0.449219"/><stop stop-opacity="1" stop-color="rgb(100%, 92.158508%, 64.094543%)" offset="0.453125"/><stop stop-opacity="1" stop-color="rgb(100%, 92.158508%, 64.476013%)" offset="0.457031"/><stop stop-opacity="1" stop-color="rgb(100%, 92.158508%, 64.857483%)" offset="0.460938"/><stop stop-opacity="1" stop-color="rgb(100%, 92.158508%, 65.237427%)" offset="0.464844"/><stop stop-opacity="1" stop-color="rgb(100%, 92.158508%, 65.618896%)" offset="0.46875"/><stop stop-opacity="1" stop-color="rgb(100%, 92.158508%, 65.99884%)" offset="0.472656"/><stop stop-opacity="1" stop-color="rgb(100%, 92.158508%, 66.38031%)" offset="0.476563"/><stop stop-opacity="1" stop-color="rgb(100%, 92.158508%, 66.76178%)" offset="0.480469"/><stop stop-opacity="1" stop-color="rgb(100%, 92.158508%, 67.14325%)" offset="0.484375"/><stop stop-opacity="1" stop-color="rgb(99.975586%, 92.129517%, 67.460632%)" offset="0.488281"/><stop stop-opacity="1" stop-color="rgb(99.952698%, 92.102051%, 67.778015%)" offset="0.492188"/><stop stop-opacity="1" stop-color="rgb(99.684143%, 91.773987%, 67.419434%)" offset="0.496094"/><stop stop-opacity="1" stop-color="rgb(99.415588%, 91.445923%, 67.062378%)" offset="0.5"/><stop stop-opacity="1" stop-color="rgb(99.147034%, 91.116333%, 66.705322%)" offset="0.503906"/><stop stop-opacity="1" stop-color="rgb(98.878479%, 90.788269%, 66.348267%)" offset="0.507813"/><stop stop-opacity="1" stop-color="rgb(98.609924%, 90.458679%, 65.989685%)" offset="0.511719"/><stop stop-opacity="1" stop-color="rgb(98.342896%, 90.130615%, 65.632629%)" offset="0.515625"/><stop stop-opacity="1" stop-color="rgb(98.074341%, 89.802551%, 65.275574%)" offset="0.519531"/><stop stop-opacity="1" stop-color="rgb(97.805786%, 89.474487%, 64.918518%)" offset="0.523438"/><stop stop-opacity="1" stop-color="rgb(97.537231%, 89.144897%, 64.559937%)" offset="0.527344"/><stop stop-opacity="1" stop-color="rgb(97.268677%, 88.816833%, 64.202881%)" offset="0.53125"/><stop stop-opacity="1" stop-color="rgb(97.000122%, 88.48877%, 63.845825%)" offset="0.535156"/><stop stop-opacity="1" stop-color="rgb(96.731567%, 88.160706%, 63.48877%)" offset="0.539062"/><stop stop-opacity="1" stop-color="rgb(96.3974%, 87.754822%, 63.052368%)" offset="0.542969"/><stop stop-opacity="1" stop-color="rgb(96.064758%, 87.350464%, 62.615967%)" offset="0.546875"/><stop stop-opacity="1" stop-color="rgb(95.66803%, 86.871338%, 62.103271%)" offset="0.550781"/><stop stop-opacity="1" stop-color="rgb(95.272827%, 86.392212%, 61.592102%)" offset="0.554688"/><stop stop-opacity="1" stop-color="rgb(94.876099%, 85.913086%, 61.079407%)" offset="0.558594"/><stop stop-opacity="1" stop-color="rgb(94.47937%, 85.435486%, 60.568237%)" offset="0.5625"/><stop stop-opacity="1" stop-color="rgb(94.082642%, 84.95636%, 60.055542%)" offset="0.566406"/><stop stop-opacity="1" stop-color="rgb(93.687439%, 84.47876%, 59.544373%)" offset="0.570313"/><stop stop-opacity="1" stop-color="rgb(93.29071%, 83.999634%, 59.031677%)" offset="0.574219"/><stop stop-opacity="1" stop-color="rgb(92.895508%, 83.520508%, 58.520508%)" offset="0.578125"/><stop stop-opacity="1" stop-color="rgb(92.498779%, 83.041382%, 58.007812%)" offset="0.582031"/><stop stop-opacity="1" stop-color="rgb(92.103577%, 82.563782%, 57.496643%)" offset="0.585938"/><stop stop-opacity="1" stop-color="rgb(91.706848%, 82.084656%, 56.985474%)" offset="0.589844"/><stop stop-opacity="1" stop-color="rgb(91.311646%, 81.607056%, 56.474304%)" offset="0.59375"/><stop stop-opacity="1" stop-color="rgb(90.914917%, 81.12793%, 55.961609%)" offset="0.597656"/><stop stop-opacity="1" stop-color="rgb(90.518188%, 80.648804%, 55.450439%)" offset="0.601563"/><stop stop-opacity="1" stop-color="rgb(90.12146%, 80.169678%, 54.937744%)" offset="0.605469"/><stop stop-opacity="1" stop-color="rgb(89.726257%, 79.692078%, 54.426575%)" offset="0.609375"/><stop stop-opacity="1" stop-color="rgb(89.329529%, 79.212952%, 53.913879%)" offset="0.613281"/><stop stop-opacity="1" stop-color="rgb(88.934326%, 78.735352%, 53.40271%)" offset="0.617188"/><stop stop-opacity="1" stop-color="rgb(88.537598%, 78.256226%, 52.890015%)" offset="0.621094"/><stop stop-opacity="1" stop-color="rgb(88.142395%, 77.7771%, 52.378845%)" offset="0.625"/><stop stop-opacity="1" stop-color="rgb(87.745667%, 77.297974%, 51.86615%)" offset="0.628906"/><stop stop-opacity="1" stop-color="rgb(87.350464%, 76.820374%, 51.35498%)" offset="0.632812"/><stop stop-opacity="1" stop-color="rgb(86.901855%, 76.271057%, 50.761414%)" offset="0.636719"/><stop stop-opacity="1" stop-color="rgb(86.454773%, 75.721741%, 50.167847%)" offset="0.640625"/><stop stop-opacity="1" stop-color="rgb(85.975647%, 75.1297%, 49.525452%)" offset="0.644531"/><stop stop-opacity="1" stop-color="rgb(85.498047%, 74.539185%, 48.884583%)" offset="0.648438"/><stop stop-opacity="1" stop-color="rgb(85.020447%, 73.947144%, 48.242188%)" offset="0.652344"/><stop stop-opacity="1" stop-color="rgb(84.542847%, 73.356628%, 47.601318%)" offset="0.65625"/><stop stop-opacity="1" stop-color="rgb(84.065247%, 72.764587%, 46.958923%)" offset="0.660156"/><stop stop-opacity="1" stop-color="rgb(83.587646%, 72.174072%, 46.318054%)" offset="0.664062"/><stop stop-opacity="1" stop-color="rgb(83.108521%, 71.583557%, 45.677185%)" offset="0.667969"/><stop stop-opacity="1" stop-color="rgb(82.63092%, 70.993042%, 45.036316%)" offset="0.671875"/><stop stop-opacity="1" stop-color="rgb(82.15332%, 70.401001%, 44.393921%)" offset="0.675781"/><stop stop-opacity="1" stop-color="rgb(81.67572%, 69.810486%, 43.753052%)" offset="0.679688"/><stop stop-opacity="1" stop-color="rgb(81.19812%, 69.218445%, 43.110657%)" offset="0.683594"/><stop stop-opacity="1" stop-color="rgb(80.72052%, 68.62793%, 42.469788%)" offset="0.6875"/><stop stop-opacity="1" stop-color="rgb(80.241394%, 68.035889%, 41.827393%)" offset="0.691406"/><stop stop-opacity="1" stop-color="rgb(79.763794%, 67.445374%, 41.186523%)" offset="0.695313"/><stop stop-opacity="1" stop-color="rgb(79.286194%, 66.854858%, 40.545654%)" offset="0.699219"/><stop stop-opacity="1" stop-color="rgb(78.808594%, 66.264343%, 39.904785%)" offset="0.703125"/><stop stop-opacity="1" stop-color="rgb(78.330994%, 65.672302%, 39.26239%)" offset="0.707031"/><stop stop-opacity="1" stop-color="rgb(77.853394%, 65.081787%, 38.621521%)" offset="0.710938"/><stop stop-opacity="1" stop-color="rgb(77.374268%, 64.489746%, 37.979126%)" offset="0.714844"/><stop stop-opacity="1" stop-color="rgb(76.896667%, 63.899231%, 37.338257%)" offset="0.71875"/><stop stop-opacity="1" stop-color="rgb(76.419067%, 63.30719%, 36.697388%)" offset="0.722656"/><stop stop-opacity="1" stop-color="rgb(75.941467%, 62.716675%, 36.056519%)" offset="0.726562"/><stop stop-opacity="1" stop-color="rgb(75.463867%, 62.12616%, 35.414124%)" offset="0.730469"/><stop stop-opacity="1" stop-color="rgb(74.986267%, 61.535645%, 34.773254%)" offset="0.734375"/><stop stop-opacity="1" stop-color="rgb(74.507141%, 60.943604%, 34.130859%)" offset="0.738281"/><stop stop-opacity="1" stop-color="rgb(74.029541%, 60.353088%, 33.48999%)" offset="0.742188"/><stop stop-opacity="1" stop-color="rgb(73.551941%, 59.761047%, 32.847595%)" offset="0.746094"/><stop stop-opacity="1" stop-color="rgb(73.074341%, 59.170532%, 32.206726%)" offset="0.75"/><stop stop-opacity="1" stop-color="rgb(72.592163%, 58.575439%, 31.562805%)" offset="0.753906"/><stop stop-opacity="1" stop-color="rgb(72.111511%, 57.981873%, 30.918884%)" offset="0.757812"/><stop stop-opacity="1" stop-color="rgb(71.562195%, 57.319641%, 30.206299%)" offset="0.761719"/><stop stop-opacity="1" stop-color="rgb(71.012878%, 56.65741%, 29.493713%)" offset="0.765625"/><stop stop-opacity="1" stop-color="rgb(70.462036%, 55.995178%, 28.781128%)" offset="0.769531"/><stop stop-opacity="1" stop-color="rgb(69.91272%, 55.332947%, 28.070068%)" offset="0.773438"/><stop stop-opacity="1" stop-color="rgb(69.363403%, 54.670715%, 27.357483%)" offset="0.777344"/><stop stop-opacity="1" stop-color="rgb(68.814087%, 54.008484%, 26.646423%)" offset="0.78125"/><stop stop-opacity="1" stop-color="rgb(68.263245%, 53.346252%, 25.933838%)" offset="0.785156"/><stop stop-opacity="1" stop-color="rgb(67.713928%, 52.684021%, 25.222778%)" offset="0.789063"/><stop stop-opacity="1" stop-color="rgb(67.163086%, 52.02179%, 24.510193%)" offset="0.792969"/><stop stop-opacity="1" stop-color="rgb(66.61377%, 51.359558%, 23.799133%)" offset="0.796875"/><stop stop-opacity="1" stop-color="rgb(66.064453%, 50.697327%, 23.086548%)" offset="0.800781"/><stop stop-opacity="1" stop-color="rgb(65.515137%, 50.035095%, 22.375488%)" offset="0.804688"/><stop stop-opacity="1" stop-color="rgb(64.964294%, 49.372864%, 21.662903%)" offset="0.808594"/><stop stop-opacity="1" stop-color="rgb(64.414978%, 48.710632%, 20.950317%)" offset="0.8125"/><stop stop-opacity="1" stop-color="rgb(63.864136%, 48.048401%, 20.237732%)" offset="0.816406"/><stop stop-opacity="1" stop-color="rgb(63.314819%, 47.386169%, 19.526672%)" offset="0.820313"/><stop stop-opacity="1" stop-color="rgb(62.765503%, 46.723938%, 18.814087%)" offset="0.824219"/><stop stop-opacity="1" stop-color="rgb(62.216187%, 46.061707%, 18.103027%)" offset="0.828125"/><stop stop-opacity="1" stop-color="rgb(61.665344%, 45.399475%, 17.390442%)" offset="0.832031"/><stop stop-opacity="1" stop-color="rgb(61.116028%, 44.737244%, 16.679382%)" offset="0.835938"/><stop stop-opacity="1" stop-color="rgb(60.565186%, 44.075012%, 15.966797%)" offset="0.839844"/><stop stop-opacity="1" stop-color="rgb(60.015869%, 43.412781%, 15.255737%)" offset="0.84375"/><stop stop-opacity="1" stop-color="rgb(59.466553%, 42.750549%, 14.543152%)" offset="0.847656"/><stop stop-opacity="1" stop-color="rgb(58.917236%, 42.088318%, 13.832092%)" offset="0.851562"/><stop stop-opacity="1" stop-color="rgb(58.366394%, 41.426086%, 13.119507%)" offset="0.855469"/><stop stop-opacity="1" stop-color="rgb(57.817078%, 40.763855%, 12.406921%)" offset="0.859375"/><stop stop-opacity="1" stop-color="rgb(57.266235%, 40.101624%, 11.694336%)" offset="0.863281"/><stop stop-opacity="1" stop-color="rgb(56.716919%, 39.439392%, 10.983276%)" offset="0.867188"/><stop stop-opacity="1" stop-color="rgb(56.167603%, 38.777161%, 10.270691%)" offset="0.871094"/><stop stop-opacity="1" stop-color="rgb(55.618286%, 38.114929%, 9.559631%)" offset="0.875"/><stop stop-opacity="1" stop-color="rgb(55.258179%, 37.68158%, 9.094238%)" offset="0.878906"/><stop stop-opacity="1" stop-color="rgb(54.899597%, 37.249756%, 8.628845%)" offset="0.882812"/><stop stop-opacity="1" stop-color="rgb(54.899597%, 37.249756%, 8.628845%)" offset="0.890625"/><stop stop-opacity="1" stop-color="rgb(54.899597%, 37.249756%, 8.628845%)" offset="0.90625"/><stop stop-opacity="1" stop-color="rgb(54.899597%, 37.249756%, 8.628845%)" offset="0.9375"/><stop stop-opacity="1" stop-color="rgb(54.899597%, 37.249756%, 8.628845%)" offset="1"/></linearGradient><clipPath id="66a5c37574"><path d="M 0 1.257812 L 154 1.257812 L 154 288.507812 L 0 288.507812 Z M 0 1.257812 " clip-rule="nonzero"/></clipPath><clipPath id="4e446ed119"><path d="M 142.015625 269.074219 C 141.25 262.851562 136.367188 257.960938 131.269531 254.316406 C 126.007812 250.558594 120.210938 247.558594 114.105469 245.433594 C 117.71875 254.484375 124.496094 262.234375 132.980469 267.019531 C 128.675781 266.808594 124.375 266.601562 120.070312 266.394531 C 119.386719 266.359375 118.65625 266.308594 118.125 265.878906 C 117.375 265.273438 117.3125 264.175781 117.238281 263.21875 C 116.375 251.503906 105.890625 243.179688 96.316406 236.390625 C 98.617188 236.855469 99.4375 239.789062 99.140625 242.117188 C 98.84375 244.445312 97.90625 246.808594 98.527344 249.070312 C 98.941406 250.582031 100 251.820312 101.027344 253.007812 C 104.402344 256.902344 107.785156 260.796875 111.164062 264.695312 C 106.757812 261.832031 101.332031 260.585938 96.117188 261.238281 C 96.488281 251.402344 92.457031 241.488281 85.328125 234.707031 C 82.230469 231.761719 78.269531 228.753906 78.273438 224.480469 C 79.1875 229.984375 78.140625 235.632812 78.660156 241.191406 C 79.179688 246.742188 81.976562 252.785156 87.339844 254.308594 C 81.335938 252.023438 74.515625 248.835938 73.085938 242.570312 C 72.40625 239.589844 73.136719 236.480469 73.058594 233.429688 C 72.855469 225.746094 67.644531 219.234375 62.691406 213.367188 C 64.730469 217.140625 65.261719 221.707031 64.152344 225.851562 C 63.566406 228.042969 62.535156 230.136719 62.359375 232.398438 C 62.1875 234.660156 63.203125 237.261719 65.375 237.914062 C 59.636719 234.015625 56.140625 227.023438 56.464844 220.089844 C 56.652344 216.003906 58.0625 211.898438 57.179688 207.902344 C 55.960938 202.382812 50.605469 198.273438 50.132812 192.640625 C 51.84375 198.070312 49.609375 203.839844 48.449219 209.414062 C 47.292969 214.992188 47.867188 221.988281 52.875 224.6875 C 49.425781 221.839844 46.355469 218.519531 43.78125 214.855469 C 42.554688 213.105469 41.394531 211.03125 41.839844 208.945312 C 42.148438 207.503906 43.164062 206.34375 43.984375 205.125 C 49.507812 196.894531 46.195312 185.863281 42.71875 176.578125 C 45.066406 178.746094 44.570312 182.664062 43 185.449219 C 41.425781 188.230469 39.011719 190.507812 37.734375 193.4375 C 35.8125 197.84375 36.785156 202.953125 38.238281 207.539062 C 37.378906 204.289062 34.996094 201.710938 33.1875 198.878906 C 31.378906 196.046875 30.117188 192.355469 31.703125 189.394531 C 32.421875 188.054688 33.628906 187.0625 34.617188 185.910156 C 39.835938 179.828125 38.328125 170.679688 36.523438 162.867188 C 38.019531 165.574219 35.769531 168.839844 33.34375 170.75 C 30.917969 172.65625 27.925781 174.5 27.375 177.542969 C 26.726562 181.152344 29.921875 184.476562 29.777344 188.136719 C 25.375 182.632812 24.480469 174.550781 27.570312 168.210938 C 29.011719 165.25 31.207031 162.71875 32.796875 159.835938 C 34.386719 156.953125 35.351562 153.417969 34.085938 150.375 C 33.542969 149.070312 32.617188 147.929688 32.214844 146.574219 C 31.808594 145.214844 32.167969 143.441406 33.488281 142.933594 C 32.246094 147.238281 28.078125 149.878906 24.988281 153.117188 C 21.902344 156.359375 19.957031 162.023438 23.292969 165.007812 C 22.460938 160.984375 21.628906 156.964844 20.792969 152.945312 C 20.53125 151.675781 20.269531 150.335938 20.667969 149.101562 C 21.300781 147.128906 23.351562 146.054688 25.058594 144.882812 C 31.859375 140.230469 35.019531 130.867188 32.421875 123.039062 C 31.945312 127.21875 27.605469 129.589844 24.101562 131.90625 C 20.597656 134.222656 17.183594 138.648438 19.367188 142.238281 C 18.523438 135.804688 19.035156 127.820312 24.804688 124.855469 C 26.125 124.175781 27.613281 123.847656 28.890625 123.085938 C 34.511719 119.734375 32.859375 110.925781 36.519531 105.496094 C 35.238281 109.425781 30.523438 110.757812 26.757812 112.46875 C 22.992188 114.179688 19.300781 118.722656 21.789062 122.023438 C 21.109375 116.917969 20.785156 110.835938 24.765625 107.566406 C 26.574219 106.082031 28.941406 105.515625 31.082031 104.574219 C 37.800781 101.621094 42.410156 94.402344 42.265625 87.058594 C 40.867188 91.171875 35.890625 92.527344 31.746094 93.835938 C 27.605469 95.144531 22.886719 98.308594 23.714844 102.574219 C 24.738281 98.222656 26.011719 93.476562 29.679688 90.917969 C 32.363281 89.046875 35.804688 88.746094 38.875 87.609375 C 44.550781 85.5 48.933594 80.21875 49.960938 74.242188 C 49.035156 77.675781 44.125 77.046875 40.578125 77.304688 C 36.230469 77.621094 32.21875 80.726562 30.925781 85.390625 C 30.648438 80.761719 34.203125 76.667969 38.300781 74.511719 C 42.402344 72.363281 47.074219 71.636719 51.496094 70.265625 C 55.921875 68.894531 60.417969 66.597656 62.585938 62.507812 C 59.453125 64.117188 55.703125 63.113281 52.183594 62.910156 C 48.667969 62.703125 44.3125 64.125 43.835938 67.617188 C 45.414062 63.582031 49.054688 60.421875 53.269531 59.425781 C 57.234375 58.488281 61.558594 59.367188 65.34375 57.859375 C 68.675781 56.53125 71.042969 53.582031 73.246094 50.75 C 71.953125 52.40625 69.410156 52.375 67.425781 51.695312 C 65.441406 51.015625 63.574219 49.84375 61.476562 49.703125 C 58.898438 49.539062 56.496094 50.972656 54.46875 52.578125 C 57.242188 49.941406 61.03125 48.410156 64.855469 48.375 C 67.25 48.351562 69.632812 48.890625 72.03125 48.851562 C 77.101562 48.777344 82.042969 45.9375 84.664062 41.589844 C 81.460938 42.890625 77.761719 44.179688 74.6875 42.597656 C 73.097656 41.777344 71.90625 40.273438 70.242188 39.617188 C 68.578125 38.964844 66.082031 39.929688 66.328125 41.699219 C 70.152344 38.398438 75.492188 36.917969 80.46875 37.785156 C 83.699219 38.347656 86.890625 39.832031 90.113281 39.269531 C 93.414062 38.691406 95.949219 36.109375 98.238281 33.667969 C 95.898438 34.710938 93.152344 34.808594 90.742188 33.925781 C 89.347656 33.417969 88.0625 32.597656 86.609375 32.304688 C 82.832031 31.535156 79.378906 34.429688 76.601562 37.109375 C 78.027344 33.804688 81.773438 32.011719 85.363281 31.78125 C 88.953125 31.550781 92.492188 32.578125 95.984375 33.429688 C 99.484375 34.28125 103.167969 34.964844 106.648438 34.058594 C 108.234375 33.644531 110.027344 32.300781 109.503906 30.746094 C 106.734375 31.5 104.03125 29.617188 101.585938 28.117188 C 99.140625 26.617188 95.722656 25.519531 93.628906 27.472656 C 92.957031 28.101562 92.535156 28.972656 91.796875 29.523438 C 91.0625 30.074219 89.777344 30.089844 89.933594 29.328125 C 91.527344 27.316406 93.664062 25.085938 96.1875 25.554688 C 97.40625 25.78125 98.40625 26.613281 99.476562 27.246094 C 102.558594 29.0625 106.304688 29.207031 109.875 29.300781 C 113.828125 29.40625 118.0625 29.4375 121.371094 27.273438 C 119.246094 27.859375 116.898438 27.605469 114.945312 26.566406 C 112.679688 25.363281 111.046875 23.222656 108.875 21.859375 C 106.699219 20.496094 103.363281 20.230469 101.953125 22.375 C 104.457031 20.960938 107.347656 19.503906 110.074219 20.398438 C 111.242188 20.78125 112.230469 21.5625 113.261719 22.234375 C 118.808594 25.816406 126.316406 26.09375 132.113281 22.941406 C 129.386719 23.722656 126.238281 22.769531 124.402344 20.601562 C 123.375 19.390625 122.730469 17.84375 121.480469 16.867188 C 120.230469 15.882812 117.984375 15.890625 117.4375 17.382812 C 121.738281 16.667969 126.105469 16.378906 130.460938 16.519531 C 133.015625 16.601562 135.597656 16.828125 138.109375 16.363281 C 140.625 15.898438 143.128906 14.617188 144.375 12.382812 C 140.65625 14.003906 136.433594 12.34375 132.429688 11.703125 C 127.523438 10.921875 122.371094 11.761719 117.96875 14.066406 C 123.820312 12.953125 128.453125 7.253906 128.34375 1.292969 C 127.679688 4.417969 124.140625 5.816406 121.207031 7.074219 C 115.144531 9.667969 109.738281 13.78125 105.621094 18.9375 C 110.28125 14.320312 113.273438 8.054688 113.941406 1.527344 C 114.085938 3.574219 112.546875 5.398438 110.769531 6.417969 C 108.992188 7.4375 106.949219 7.882812 105.066406 8.695312 C 102.1875 9.933594 99.695312 12.054688 98.007812 14.695312 C 96.003906 17.824219 94.917969 21.863281 91.671875 23.679688 C 94.328125 21.457031 96.109375 18.210938 96.558594 14.773438 C 96.953125 11.742188 96.480469 8.257812 98.546875 6.011719 C 98 9.320312 93.871094 10.332031 91.113281 12.230469 C 87.699219 14.582031 86.148438 18.75 84.460938 22.535156 C 82.773438 26.320312 80.351562 30.316406 76.351562 31.40625 C 79.703125 30.046875 81.902344 26.28125 81.441406 22.691406 C 81.304688 21.625 80.957031 20.578125 80.972656 19.503906 C 81.003906 17.652344 82.097656 15.980469 83.355469 14.621094 C 81.582031 17.679688 77.796875 18.890625 75.269531 21.355469 C 70.050781 26.445312 70.523438 36.367188 63.976562 39.570312 C 65.5625 38.441406 66.285156 36.382812 66.183594 34.441406 C 66.082031 32.503906 65.257812 30.667969 64.242188 29.015625 C 63.722656 28.164062 63.132812 27.308594 63.027344 26.316406 C 62.917969 25.328125 63.5 24.175781 64.484375 24.058594 C 63.691406 25.246094 62.894531 26.433594 62.105469 27.617188 C 59.738281 31.160156 57.316406 34.832031 56.574219 39.023438 C 56.230469 40.980469 56.257812 43 55.789062 44.929688 C 55.320312 46.859375 54.203125 48.792969 52.351562 49.511719 C 53.320312 47.652344 54.308594 45.515625 53.605469 43.542969 C 53.03125 41.929688 51.492188 40.910156 50.429688 39.570312 C 49.371094 38.230469 48.976562 35.9375 50.425781 35.046875 C 50.246094 37.492188 48.125 39.257812 46.824219 41.332031 C 44.542969 44.964844 44.800781 49.558594 44.542969 53.839844 C 44.289062 58.121094 43.019531 62.960938 39.183594 64.871094 C 40.636719 63.121094 42.175781 60.839844 41.273438 58.746094 C 40.65625 57.3125 39.101562 56.566406 37.996094 55.460938 C 36.265625 53.730469 35.707031 50.917969 36.652344 48.652344 C 33.835938 52.449219 32.152344 57.078125 31.871094 61.796875 C 31.59375 66.558594 32.671875 71.554688 30.382812 76.335938 C 29.914062 77.988281 29.449219 79.636719 28.980469 81.289062 C 30.570312 75.515625 28.832031 68.949219 24.589844 64.726562 C 22.90625 70.652344 21.199219 76.867188 22.476562 82.898438 C 23.054688 85.609375 24.210938 88.171875 24.742188 90.890625 C 25.277344 93.609375 25.0625 96.695312 23.214844 98.761719 C 23.722656 94.820312 21.828125 90.878906 19.089844 88.003906 C 16.355469 85.125 12.847656 83.132812 9.394531 81.179688 C 11.414062 82.691406 12 85.472656 11.957031 87.996094 C 11.90625 90.519531 11.378906 93.054688 11.785156 95.546875 C 12.351562 99.019531 14.636719 101.925781 16.167969 105.097656 C 18.90625 110.777344 19.191406 117.285156 19.429688 123.585938 C 18.871094 119.3125 16.445312 115.457031 13.371094 112.4375 C 10.296875 109.417969 6.597656 107.128906 2.910156 104.90625 C 5.15625 106.082031 6.226562 108.710938 6.699219 111.203125 C 7.171875 113.695312 7.242188 116.304688 8.277344 118.621094 C 9.640625 121.671875 12.476562 123.785156 14.355469 126.546875 C 17.367188 130.976562 17.679688 136.640625 17.890625 141.996094 C 16.316406 137.140625 14.191406 131.789062 9.5 129.78125 C 8.226562 129.234375 6.84375 128.984375 5.554688 128.46875 C 2.984375 127.433594 0.871094 125.300781 -0.136719 122.714844 C 2.628906 125.863281 0.96875 130.878906 2.382812 134.820312 C 3.785156 138.726562 7.859375 140.851562 10.816406 143.765625 C 16.726562 149.59375 18.039062 158.511719 18.953125 166.769531 C 18.46875 161.289062 12.960938 157.460938 7.535156 156.5625 C 5.550781 156.234375 3.496094 156.179688 1.609375 155.492188 C -0.277344 154.800781 -2.042969 153.261719 -2.238281 151.257812 C 0.0429688 157.054688 2.453125 163.054688 7.003906 167.300781 C 9.511719 169.644531 12.550781 171.328125 15.234375 173.476562 C 20.464844 177.660156 24.253906 183.625 25.816406 190.140625 C 25.480469 187.28125 23.511719 184.824219 21.128906 183.207031 C 18.746094 181.59375 15.964844 180.699219 13.226562 179.820312 C 9.175781 178.523438 5.121094 177.222656 1.070312 175.925781 C 4.035156 176.042969 5.121094 179.746094 6.339844 182.457031 C 8.722656 187.753906 14.117188 191.011719 19.472656 193.25 C 21.527344 194.109375 23.640625 194.878906 25.492188 196.117188 C 28.925781 198.40625 31.152344 202.074219 33.675781 206.632812 C 25.550781 200.789062 15.621094 197.503906 5.617188 197.339844 C 12.371094 202.386719 16.6875 210.671875 24.429688 214.023438 C 27.988281 215.5625 31.960938 215.894531 35.601562 217.230469 C 40.476562 219.019531 44.503906 222.507812 48.410156 225.921875 C 39.382812 219.214844 27.402344 218.480469 16.171875 217.996094 C 24.203125 219.265625 27.71875 229.089844 34.777344 233.121094 C 39.539062 235.835938 45.335938 235.613281 50.800781 235.976562 C 56.261719 236.339844 62.316406 237.777344 65.257812 242.402344 C 60.363281 240.0625 55.042969 237.664062 49.726562 238.707031 C 46.863281 239.269531 44.277344 240.796875 41.441406 241.488281 C 38.609375 242.179688 35.125 241.75 33.554688 239.285156 C 38.074219 242.058594 42.589844 244.828125 47.109375 247.597656 C 50.054688 249.40625 53.058594 251.238281 56.394531 252.132812 C 61.011719 253.367188 65.890625 252.722656 70.667969 252.757812 C 75.441406 252.796875 80.628906 253.746094 83.816406 257.3125 C 80.175781 256.035156 76.289062 254.742188 72.535156 255.628906 C 70.246094 256.171875 68.230469 257.480469 66.113281 258.507812 C 61.652344 260.671875 56.59375 261.585938 51.652344 261.132812 C 59.28125 262.828125 65.941406 268.355469 73.75 268.554688 C 77.621094 268.652344 81.378906 267.414062 85.183594 266.707031 C 90.40625 265.734375 95.8125 265.765625 101.023438 266.796875 C 97.355469 265.960938 93.140625 265.234375 90.132812 267.496094 C 88.28125 268.894531 87.320312 271.148438 85.851562 272.9375 C 83.53125 275.777344 79.832031 277.421875 76.175781 277.238281 C 83.160156 277.800781 90.253906 278.355469 97.132812 277.03125 C 106.804688 275.167969 116.1875 269.625 125.867188 271.449219 C 120.390625 271.246094 114.949219 274.546875 112.59375 279.496094 C 111.203125 282.414062 110.816406 285.796875 109 288.46875 C 108.132812 286.714844 109.914062 284.640625 111.835938 284.28125 C 113.753906 283.914062 115.695312 284.605469 117.628906 284.886719 C 122.085938 285.523438 126.527344 283.933594 130.75 282.371094 C 132.984375 281.546875 135.34375 280.628906 136.765625 278.714844 C 138.113281 276.902344 138.484375 274.351562 140.273438 272.96875 C 143.6875 270.335938 148.75 274.085938 152.867188 272.808594 C 153.113281 271.703125 153.019531 270.527344 152.609375 269.472656 C 149.035156 268.960938 145.410156 268.933594 142.015625 269.074219 Z M 142.015625 269.074219 " clip-rule="nonzero"/></clipPath><linearGradient x1="73.614855" gradientTransform="matrix(0.371634, 0, 0, 0.37194, -50.084442, -32.661169)" y1="402.516752" x2="616.372237" gradientUnits="userSpaceOnUse" y2="509.163799" id="9bccee7239"><stop stop-opacity="1" stop-color="rgb(78.819275%, 61.959839%, 36.468506%)" offset="0"/><stop stop-opacity="1" stop-color="rgb(78.819275%, 61.959839%, 36.468506%)" offset="0.0625"/><stop stop-opacity="1" stop-color="rgb(78.819275%, 61.959839%, 36.468506%)" offset="0.09375"/><stop stop-opacity="1" stop-color="rgb(78.819275%, 61.959839%, 36.468506%)" offset="0.109375"/><stop stop-opacity="1" stop-color="rgb(78.994751%, 62.199402%, 36.59668%)" offset="0.113281"/><stop stop-opacity="1" stop-color="rgb(79.171753%, 62.438965%, 36.724854%)" offset="0.117188"/><stop stop-opacity="1" stop-color="rgb(79.393005%, 62.741089%, 36.886597%)" offset="0.121094"/><stop stop-opacity="1" stop-color="rgb(79.615784%, 63.043213%, 37.04834%)" offset="0.125"/><stop stop-opacity="1" stop-color="rgb(79.837036%, 63.345337%, 37.210083%)" offset="0.128906"/><stop stop-opacity="1" stop-color="rgb(80.059814%, 63.647461%, 37.371826%)" offset="0.132813"/><stop stop-opacity="1" stop-color="rgb(80.281067%, 63.949585%, 37.532043%)" offset="0.136719"/><stop stop-opacity="1" stop-color="rgb(80.503845%, 64.253235%, 37.693787%)" offset="0.140625"/><stop stop-opacity="1" stop-color="rgb(80.726624%, 64.555359%, 37.85553%)" offset="0.144531"/><stop stop-opacity="1" stop-color="rgb(80.949402%, 64.857483%, 38.017273%)" offset="0.148438"/><stop stop-opacity="1" stop-color="rgb(81.170654%, 65.159607%, 38.17749%)" offset="0.152344"/><stop stop-opacity="1" stop-color="rgb(81.393433%, 65.461731%, 38.339233%)" offset="0.15625"/><stop stop-opacity="1" stop-color="rgb(81.614685%, 65.763855%, 38.500977%)" offset="0.160156"/><stop stop-opacity="1" stop-color="rgb(81.837463%, 66.067505%, 38.66272%)" offset="0.164063"/><stop stop-opacity="1" stop-color="rgb(82.058716%, 66.369629%, 38.824463%)" offset="0.167969"/><stop stop-opacity="1" stop-color="rgb(82.281494%, 66.671753%, 38.986206%)" offset="0.171875"/><stop stop-opacity="1" stop-color="rgb(82.502747%, 66.973877%, 39.146423%)" offset="0.175781"/><stop stop-opacity="1" stop-color="rgb(82.725525%, 67.276001%, 39.308167%)" offset="0.179688"/><stop stop-opacity="1" stop-color="rgb(82.952881%, 67.585754%, 39.472961%)" offset="0.183594"/><stop stop-opacity="1" stop-color="rgb(83.180237%, 67.897034%, 39.639282%)" offset="0.1875"/><stop stop-opacity="1" stop-color="rgb(83.47168%, 68.315125%, 39.859009%)" offset="0.191406"/><stop stop-opacity="1" stop-color="rgb(83.764648%, 68.733215%, 40.078735%)" offset="0.195313"/><stop stop-opacity="1" stop-color="rgb(84.056091%, 69.151306%, 40.296936%)" offset="0.199219"/><stop stop-opacity="1" stop-color="rgb(84.34906%, 69.569397%, 40.516663%)" offset="0.203125"/><stop stop-opacity="1" stop-color="rgb(84.642029%, 69.985962%, 40.734863%)" offset="0.207031"/><stop stop-opacity="1" stop-color="rgb(84.934998%, 70.404053%, 40.95459%)" offset="0.210938"/><stop stop-opacity="1" stop-color="rgb(85.22644%, 70.822144%, 41.172791%)" offset="0.214844"/><stop stop-opacity="1" stop-color="rgb(85.519409%, 71.240234%, 41.392517%)" offset="0.21875"/><stop stop-opacity="1" stop-color="rgb(85.810852%, 71.658325%, 41.612244%)" offset="0.222656"/><stop stop-opacity="1" stop-color="rgb(86.103821%, 72.076416%, 41.83197%)" offset="0.226563"/><stop stop-opacity="1" stop-color="rgb(86.395264%, 72.492981%, 42.050171%)" offset="0.230469"/><stop stop-opacity="1" stop-color="rgb(86.688232%, 72.911072%, 42.269897%)" offset="0.234375"/><stop stop-opacity="1" stop-color="rgb(86.981201%, 73.329163%, 42.488098%)" offset="0.238281"/><stop stop-opacity="1" stop-color="rgb(87.27417%, 73.747253%, 42.707825%)" offset="0.242188"/><stop stop-opacity="1" stop-color="rgb(87.565613%, 74.163818%, 42.926025%)" offset="0.246094"/><stop stop-opacity="1" stop-color="rgb(87.858582%, 74.581909%, 43.145752%)" offset="0.25"/><stop stop-opacity="1" stop-color="rgb(88.150024%, 75%, 43.365479%)" offset="0.253906"/><stop stop-opacity="1" stop-color="rgb(88.442993%, 75.418091%, 43.585205%)" offset="0.257812"/><stop stop-opacity="1" stop-color="rgb(88.734436%, 75.836182%, 43.803406%)" offset="0.261719"/><stop stop-opacity="1" stop-color="rgb(89.027405%, 76.254272%, 44.023132%)" offset="0.265625"/><stop stop-opacity="1" stop-color="rgb(89.320374%, 76.670837%, 44.241333%)" offset="0.269531"/><stop stop-opacity="1" stop-color="rgb(89.613342%, 77.088928%, 44.46106%)" offset="0.273438"/><stop stop-opacity="1" stop-color="rgb(89.904785%, 77.507019%, 44.67926%)" offset="0.277344"/><stop stop-opacity="1" stop-color="rgb(90.197754%, 77.92511%, 44.898987%)" offset="0.28125"/><stop stop-opacity="1" stop-color="rgb(90.489197%, 78.343201%, 45.118713%)" offset="0.285156"/><stop stop-opacity="1" stop-color="rgb(90.782166%, 78.761292%, 45.33844%)" offset="0.289062"/><stop stop-opacity="1" stop-color="rgb(91.073608%, 79.177856%, 45.556641%)" offset="0.292969"/><stop stop-opacity="1" stop-color="rgb(91.366577%, 79.595947%, 45.776367%)" offset="0.296875"/><stop stop-opacity="1" stop-color="rgb(91.659546%, 80.014038%, 45.994568%)" offset="0.300781"/><stop stop-opacity="1" stop-color="rgb(91.952515%, 80.432129%, 46.214294%)" offset="0.304688"/><stop stop-opacity="1" stop-color="rgb(92.243958%, 80.85022%, 46.434021%)" offset="0.308594"/><stop stop-opacity="1" stop-color="rgb(92.536926%, 81.268311%, 46.653748%)" offset="0.3125"/><stop stop-opacity="1" stop-color="rgb(92.828369%, 81.684875%, 46.871948%)" offset="0.316406"/><stop stop-opacity="1" stop-color="rgb(93.121338%, 82.102966%, 47.091675%)" offset="0.320312"/><stop stop-opacity="1" stop-color="rgb(93.412781%, 82.521057%, 47.309875%)" offset="0.324219"/><stop stop-opacity="1" stop-color="rgb(93.70575%, 82.939148%, 47.529602%)" offset="0.328125"/><stop stop-opacity="1" stop-color="rgb(94.006348%, 83.372498%, 47.753906%)" offset="0.332031"/><stop stop-opacity="1" stop-color="rgb(94.308472%, 83.805847%, 47.97821%)" offset="0.335938"/><stop stop-opacity="1" stop-color="rgb(94.628906%, 84.275818%, 48.213196%)" offset="0.339844"/><stop stop-opacity="1" stop-color="rgb(94.949341%, 84.747314%, 48.449707%)" offset="0.34375"/><stop stop-opacity="1" stop-color="rgb(95.269775%, 85.217285%, 48.684692%)" offset="0.347656"/><stop stop-opacity="1" stop-color="rgb(95.591736%, 85.688782%, 48.921204%)" offset="0.351563"/><stop stop-opacity="1" stop-color="rgb(95.91217%, 86.160278%, 49.156189%)" offset="0.355469"/><stop stop-opacity="1" stop-color="rgb(96.232605%, 86.631775%, 49.3927%)" offset="0.359375"/><stop stop-opacity="1" stop-color="rgb(96.55304%, 87.101746%, 49.627686%)" offset="0.363281"/><stop stop-opacity="1" stop-color="rgb(96.875%, 87.573242%, 49.862671%)" offset="0.367188"/><stop stop-opacity="1" stop-color="rgb(97.195435%, 88.043213%, 50.097656%)" offset="0.371094"/><stop stop-opacity="1" stop-color="rgb(97.515869%, 88.514709%, 50.334167%)" offset="0.375"/><stop stop-opacity="1" stop-color="rgb(97.836304%, 88.98468%, 50.569153%)" offset="0.378906"/><stop stop-opacity="1" stop-color="rgb(98.158264%, 89.456177%, 50.805664%)" offset="0.382813"/><stop stop-opacity="1" stop-color="rgb(98.478699%, 89.926147%, 51.040649%)" offset="0.386719"/><stop stop-opacity="1" stop-color="rgb(98.799133%, 90.397644%, 51.277161%)" offset="0.390625"/><stop stop-opacity="1" stop-color="rgb(99.119568%, 90.867615%, 51.512146%)" offset="0.394531"/><stop stop-opacity="1" stop-color="rgb(99.441528%, 91.339111%, 51.748657%)" offset="0.398438"/><stop stop-opacity="1" stop-color="rgb(99.720764%, 91.748047%, 52.000427%)" offset="0.402344"/><stop stop-opacity="1" stop-color="rgb(100%, 92.158508%, 52.253723%)" offset="0.40625"/><stop stop-opacity="1" stop-color="rgb(100%, 92.158508%, 52.613831%)" offset="0.410156"/><stop stop-opacity="1" stop-color="rgb(100%, 92.158508%, 52.975464%)" offset="0.414062"/><stop stop-opacity="1" stop-color="rgb(100%, 92.158508%, 53.337097%)" offset="0.417969"/><stop stop-opacity="1" stop-color="rgb(100%, 92.158508%, 53.69873%)" offset="0.421875"/><stop stop-opacity="1" stop-color="rgb(100%, 92.158508%, 54.060364%)" offset="0.425781"/><stop stop-opacity="1" stop-color="rgb(100%, 92.158508%, 54.421997%)" offset="0.429688"/><stop stop-opacity="1" stop-color="rgb(100%, 92.158508%, 54.78363%)" offset="0.433594"/><stop stop-opacity="1" stop-color="rgb(100%, 92.158508%, 55.145264%)" offset="0.4375"/><stop stop-opacity="1" stop-color="rgb(100%, 92.158508%, 55.506897%)" offset="0.441406"/><stop stop-opacity="1" stop-color="rgb(100%, 92.158508%, 55.86853%)" offset="0.445313"/><stop stop-opacity="1" stop-color="rgb(100%, 92.158508%, 56.230164%)" offset="0.449219"/><stop stop-opacity="1" stop-color="rgb(100%, 92.158508%, 56.591797%)" offset="0.453125"/><stop stop-opacity="1" stop-color="rgb(100%, 92.158508%, 56.95343%)" offset="0.457031"/><stop stop-opacity="1" stop-color="rgb(100%, 92.158508%, 57.315063%)" offset="0.460938"/><stop stop-opacity="1" stop-color="rgb(100%, 92.158508%, 57.676697%)" offset="0.464844"/><stop stop-opacity="1" stop-color="rgb(100%, 92.158508%, 58.03833%)" offset="0.46875"/><stop stop-opacity="1" stop-color="rgb(100%, 92.158508%, 58.399963%)" offset="0.472656"/><stop stop-opacity="1" stop-color="rgb(100%, 92.158508%, 58.761597%)" offset="0.476562"/><stop stop-opacity="1" stop-color="rgb(100%, 92.158508%, 59.12323%)" offset="0.480469"/><stop stop-opacity="1" stop-color="rgb(100%, 92.158508%, 59.484863%)" offset="0.484375"/><stop stop-opacity="1" stop-color="rgb(100%, 92.158508%, 59.846497%)" offset="0.488281"/><stop stop-opacity="1" stop-color="rgb(100%, 92.158508%, 60.20813%)" offset="0.492188"/><stop stop-opacity="1" stop-color="rgb(100%, 92.158508%, 60.569763%)" offset="0.496094"/><stop stop-opacity="1" stop-color="rgb(100%, 92.158508%, 60.931396%)" offset="0.5"/><stop stop-opacity="1" stop-color="rgb(100%, 92.158508%, 61.29303%)" offset="0.503906"/><stop stop-opacity="1" stop-color="rgb(100%, 92.158508%, 61.654663%)" offset="0.507813"/><stop stop-opacity="1" stop-color="rgb(100%, 92.158508%, 62.016296%)" offset="0.511719"/><stop stop-opacity="1" stop-color="rgb(100%, 92.158508%, 62.37793%)" offset="0.515625"/><stop stop-opacity="1" stop-color="rgb(100%, 92.158508%, 62.739563%)" offset="0.519531"/><stop stop-opacity="1" stop-color="rgb(100%, 92.158508%, 63.101196%)" offset="0.523438"/><stop stop-opacity="1" stop-color="rgb(100%, 92.158508%, 63.46283%)" offset="0.527344"/><stop stop-opacity="1" stop-color="rgb(100%, 92.158508%, 63.824463%)" offset="0.53125"/><stop stop-opacity="1" stop-color="rgb(100%, 92.158508%, 64.186096%)" offset="0.535156"/><stop stop-opacity="1" stop-color="rgb(100%, 92.158508%, 64.547729%)" offset="0.539062"/><stop stop-opacity="1" stop-color="rgb(100%, 92.158508%, 64.909363%)" offset="0.542969"/><stop stop-opacity="1" stop-color="rgb(100%, 92.158508%, 65.270996%)" offset="0.546875"/><stop stop-opacity="1" stop-color="rgb(100%, 92.158508%, 65.632629%)" offset="0.550781"/><stop stop-opacity="1" stop-color="rgb(100%, 92.158508%, 65.994263%)" offset="0.554688"/><stop stop-opacity="1" stop-color="rgb(100%, 92.158508%, 66.355896%)" offset="0.558594"/><stop stop-opacity="1" stop-color="rgb(100%, 92.158508%, 66.717529%)" offset="0.5625"/><stop stop-opacity="1" stop-color="rgb(100%, 92.158508%, 67.079163%)" offset="0.566406"/><stop stop-opacity="1" stop-color="rgb(100%, 92.158508%, 67.440796%)" offset="0.570313"/><stop stop-opacity="1" stop-color="rgb(99.885559%, 92.018127%, 67.488098%)" offset="0.578125"/><stop stop-opacity="1" stop-color="rgb(99.516296%, 91.567993%, 67.195129%)" offset="0.582031"/><stop stop-opacity="1" stop-color="rgb(99.261475%, 91.256714%, 66.856384%)" offset="0.585938"/><stop stop-opacity="1" stop-color="rgb(99.006653%, 90.943909%, 66.517639%)" offset="0.589844"/><stop stop-opacity="1" stop-color="rgb(98.751831%, 90.632629%, 66.178894%)" offset="0.59375"/><stop stop-opacity="1" stop-color="rgb(98.497009%, 90.32135%, 65.838623%)" offset="0.597656"/><stop stop-opacity="1" stop-color="rgb(98.242188%, 90.010071%, 65.499878%)" offset="0.601562"/><stop stop-opacity="1" stop-color="rgb(97.987366%, 89.697266%, 65.161133%)" offset="0.605469"/><stop stop-opacity="1" stop-color="rgb(97.732544%, 89.385986%, 64.822388%)" offset="0.609375"/><stop stop-opacity="1" stop-color="rgb(97.477722%, 89.073181%, 64.482117%)" offset="0.613281"/><stop stop-opacity="1" stop-color="rgb(97.2229%, 88.761902%, 64.143372%)" offset="0.617188"/><stop stop-opacity="1" stop-color="rgb(96.968079%, 88.450623%, 63.804626%)" offset="0.621094"/><stop stop-opacity="1" stop-color="rgb(96.714783%, 88.139343%, 63.465881%)" offset="0.625"/><stop stop-opacity="1" stop-color="rgb(96.395874%, 87.753296%, 63.049316%)" offset="0.628906"/><stop stop-opacity="1" stop-color="rgb(96.078491%, 87.367249%, 62.634277%)" offset="0.632813"/><stop stop-opacity="1" stop-color="rgb(95.703125%, 86.912537%, 62.149048%)" offset="0.636719"/><stop stop-opacity="1" stop-color="rgb(95.327759%, 86.459351%, 61.663818%)" offset="0.640625"/><stop stop-opacity="1" stop-color="rgb(94.950867%, 86.004639%, 61.177063%)" offset="0.644531"/><stop stop-opacity="1" stop-color="rgb(94.5755%, 85.551453%, 60.691833%)" offset="0.648438"/><stop stop-opacity="1" stop-color="rgb(94.198608%, 85.096741%, 60.205078%)" offset="0.652344"/><stop stop-opacity="1" stop-color="rgb(93.823242%, 84.642029%, 59.719849%)" offset="0.65625"/><stop stop-opacity="1" stop-color="rgb(93.447876%, 84.187317%, 59.234619%)" offset="0.660156"/><stop stop-opacity="1" stop-color="rgb(93.07251%, 83.734131%, 58.74939%)" offset="0.664062"/><stop stop-opacity="1" stop-color="rgb(92.695618%, 83.279419%, 58.262634%)" offset="0.667969"/><stop stop-opacity="1" stop-color="rgb(92.320251%, 82.826233%, 57.777405%)" offset="0.671875"/><stop stop-opacity="1" stop-color="rgb(91.943359%, 82.371521%, 57.290649%)" offset="0.675781"/><stop stop-opacity="1" stop-color="rgb(91.567993%, 81.916809%, 56.80542%)" offset="0.679688"/><stop stop-opacity="1" stop-color="rgb(91.192627%, 81.462097%, 56.32019%)" offset="0.683594"/><stop stop-opacity="1" stop-color="rgb(90.817261%, 81.008911%, 55.834961%)" offset="0.6875"/><stop stop-opacity="1" stop-color="rgb(90.440369%, 80.554199%, 55.348206%)" offset="0.691406"/><stop stop-opacity="1" stop-color="rgb(90.065002%, 80.101013%, 54.862976%)" offset="0.695313"/><stop stop-opacity="1" stop-color="rgb(89.68811%, 79.646301%, 54.376221%)" offset="0.699219"/><stop stop-opacity="1" stop-color="rgb(89.312744%, 79.193115%, 53.890991%)" offset="0.703125"/><stop stop-opacity="1" stop-color="rgb(88.935852%, 78.738403%, 53.405762%)" offset="0.707031"/><stop stop-opacity="1" stop-color="rgb(88.560486%, 78.283691%, 52.920532%)" offset="0.710938"/><stop stop-opacity="1" stop-color="rgb(88.18512%, 77.828979%, 52.433777%)" offset="0.714844"/><stop stop-opacity="1" stop-color="rgb(87.809753%, 77.375793%, 51.948547%)" offset="0.71875"/><stop stop-opacity="1" stop-color="rgb(87.432861%, 76.921082%, 51.461792%)" offset="0.722656"/><stop stop-opacity="1" stop-color="rgb(87.057495%, 76.46637%, 50.976562%)" offset="0.726563"/><stop stop-opacity="1" stop-color="rgb(86.604309%, 75.904846%, 50.367737%)" offset="0.730469"/><stop stop-opacity="1" stop-color="rgb(86.151123%, 75.344849%, 49.758911%)" offset="0.734375"/><stop stop-opacity="1" stop-color="rgb(85.696411%, 74.783325%, 49.150085%)" offset="0.738281"/><stop stop-opacity="1" stop-color="rgb(85.243225%, 74.223328%, 48.54126%)" offset="0.742188"/><stop stop-opacity="1" stop-color="rgb(84.790039%, 73.661804%, 47.932434%)" offset="0.746094"/><stop stop-opacity="1" stop-color="rgb(84.336853%, 73.101807%, 47.325134%)" offset="0.75"/><stop stop-opacity="1" stop-color="rgb(83.882141%, 72.540283%, 46.716309%)" offset="0.753906"/><stop stop-opacity="1" stop-color="rgb(83.428955%, 71.980286%, 46.107483%)" offset="0.757812"/><stop stop-opacity="1" stop-color="rgb(82.975769%, 71.418762%, 45.498657%)" offset="0.761719"/><stop stop-opacity="1" stop-color="rgb(82.522583%, 70.857239%, 44.889832%)" offset="0.765625"/><stop stop-opacity="1" stop-color="rgb(82.069397%, 70.295715%, 44.281006%)" offset="0.769531"/><stop stop-opacity="1" stop-color="rgb(81.616211%, 69.735718%, 43.67218%)" offset="0.773438"/><stop stop-opacity="1" stop-color="rgb(81.161499%, 69.174194%, 43.063354%)" offset="0.777344"/><stop stop-opacity="1" stop-color="rgb(80.708313%, 68.614197%, 42.454529%)" offset="0.78125"/><stop stop-opacity="1" stop-color="rgb(80.255127%, 68.052673%, 41.845703%)" offset="0.785156"/><stop stop-opacity="1" stop-color="rgb(79.801941%, 67.492676%, 41.238403%)" offset="0.789063"/><stop stop-opacity="1" stop-color="rgb(79.348755%, 66.931152%, 40.629578%)" offset="0.792969"/><stop stop-opacity="1" stop-color="rgb(78.895569%, 66.371155%, 40.020752%)" offset="0.796875"/><stop stop-opacity="1" stop-color="rgb(78.440857%, 65.809631%, 39.411926%)" offset="0.800781"/><stop stop-opacity="1" stop-color="rgb(77.987671%, 65.248108%, 38.803101%)" offset="0.804688"/><stop stop-opacity="1" stop-color="rgb(77.534485%, 64.686584%, 38.194275%)" offset="0.808594"/><stop stop-opacity="1" stop-color="rgb(77.081299%, 64.126587%, 37.585449%)" offset="0.8125"/><stop stop-opacity="1" stop-color="rgb(76.626587%, 63.565063%, 36.976624%)" offset="0.816406"/><stop stop-opacity="1" stop-color="rgb(76.173401%, 63.005066%, 36.367798%)" offset="0.820312"/><stop stop-opacity="1" stop-color="rgb(75.720215%, 62.443542%, 35.758972%)" offset="0.824219"/><stop stop-opacity="1" stop-color="rgb(75.267029%, 61.883545%, 35.150146%)" offset="0.828125"/><stop stop-opacity="1" stop-color="rgb(74.813843%, 61.322021%, 34.541321%)" offset="0.832031"/><stop stop-opacity="1" stop-color="rgb(74.360657%, 60.762024%, 33.934021%)" offset="0.835938"/><stop stop-opacity="1" stop-color="rgb(73.905945%, 60.2005%, 33.325195%)" offset="0.839844"/><stop stop-opacity="1" stop-color="rgb(73.452759%, 59.638977%, 32.71637%)" offset="0.84375"/><stop stop-opacity="1" stop-color="rgb(72.999573%, 59.077454%, 32.107544%)" offset="0.847656"/><stop stop-opacity="1" stop-color="rgb(72.546387%, 58.517456%, 31.498718%)" offset="0.851562"/><stop stop-opacity="1" stop-color="rgb(72.053528%, 57.917786%, 30.851746%)" offset="0.855469"/><stop stop-opacity="1" stop-color="rgb(71.560669%, 57.318115%, 30.204773%)" offset="0.859375"/><stop stop-opacity="1" stop-color="rgb(71.038818%, 56.689453%, 29.528809%)" offset="0.863281"/><stop stop-opacity="1" stop-color="rgb(70.516968%, 56.062317%, 28.852844%)" offset="0.867188"/><stop stop-opacity="1" stop-color="rgb(69.995117%, 55.433655%, 28.17688%)" offset="0.871094"/><stop stop-opacity="1" stop-color="rgb(69.473267%, 54.804993%, 27.502441%)" offset="0.875"/><stop stop-opacity="1" stop-color="rgb(68.951416%, 54.176331%, 26.826477%)" offset="0.878906"/><stop stop-opacity="1" stop-color="rgb(68.431091%, 53.547668%, 26.150513%)" offset="0.882812"/><stop stop-opacity="1" stop-color="rgb(67.909241%, 52.919006%, 25.474548%)" offset="0.886719"/><stop stop-opacity="1" stop-color="rgb(67.38739%, 52.290344%, 24.80011%)" offset="0.890625"/><stop stop-opacity="1" stop-color="rgb(66.86554%, 51.661682%, 24.124146%)" offset="0.894531"/><stop stop-opacity="1" stop-color="rgb(66.343689%, 51.034546%, 23.448181%)" offset="0.898438"/><stop stop-opacity="1" stop-color="rgb(65.821838%, 50.405884%, 22.772217%)" offset="0.902344"/><stop stop-opacity="1" stop-color="rgb(65.299988%, 49.777222%, 22.097778%)" offset="0.90625"/><stop stop-opacity="1" stop-color="rgb(64.778137%, 49.14856%, 21.421814%)" offset="0.910156"/><stop stop-opacity="1" stop-color="rgb(64.256287%, 48.519897%, 20.74585%)" offset="0.914062"/><stop stop-opacity="1" stop-color="rgb(63.734436%, 47.891235%, 20.069885%)" offset="0.917969"/><stop stop-opacity="1" stop-color="rgb(63.212585%, 47.262573%, 19.393921%)" offset="0.921875"/><stop stop-opacity="1" stop-color="rgb(62.690735%, 46.633911%, 18.717957%)" offset="0.925781"/><stop stop-opacity="1" stop-color="rgb(62.168884%, 46.006775%, 18.043518%)" offset="0.929688"/><stop stop-opacity="1" stop-color="rgb(61.647034%, 45.378113%, 17.367554%)" offset="0.933594"/><stop stop-opacity="1" stop-color="rgb(61.125183%, 44.749451%, 16.691589%)" offset="0.9375"/><stop stop-opacity="1" stop-color="rgb(60.603333%, 44.120789%, 16.015625%)" offset="0.941406"/><stop stop-opacity="1" stop-color="rgb(60.083008%, 43.492126%, 15.341187%)" offset="0.945312"/><stop stop-opacity="1" stop-color="rgb(59.561157%, 42.863464%, 14.665222%)" offset="0.949219"/><stop stop-opacity="1" stop-color="rgb(59.039307%, 42.234802%, 13.989258%)" offset="0.953125"/><stop stop-opacity="1" stop-color="rgb(58.517456%, 41.60614%, 13.313293%)" offset="0.957031"/><stop stop-opacity="1" stop-color="rgb(57.995605%, 40.979004%, 12.638855%)" offset="0.960938"/><stop stop-opacity="1" stop-color="rgb(57.473755%, 40.350342%, 11.962891%)" offset="0.964844"/><stop stop-opacity="1" stop-color="rgb(56.951904%, 39.72168%, 11.286926%)" offset="0.96875"/><stop stop-opacity="1" stop-color="rgb(56.430054%, 39.093018%, 10.610962%)" offset="0.972656"/><stop stop-opacity="1" stop-color="rgb(55.908203%, 38.464355%, 9.936523%)" offset="0.976562"/><stop stop-opacity="1" stop-color="rgb(55.403137%, 37.857056%, 9.281921%)" offset="0.980469"/><stop stop-opacity="1" stop-color="rgb(54.899597%, 37.249756%, 8.628845%)" offset="0.984375"/><stop stop-opacity="1" stop-color="rgb(54.899597%, 37.249756%, 8.628845%)" offset="1"/></linearGradient></defs><g clip-path="url(#8df84cfbc0)"><g clip-path="url(#e9d908fc57)"><path fill="url(#2691e52385)" d="M 144.675781 1.292969 L 144.675781 288.46875 L 300 288.46875 L 300 1.292969 Z M 144.675781 1.292969 " fill-rule="nonzero"/></g></g><g clip-path="url(#66a5c37574)"><g clip-path="url(#4e446ed119)"><path fill="url(#9bccee7239)" d="M 0 1.292969 L 0 288.46875 L 153.113281 288.46875 L 153.113281 1.292969 Z M 0 1.292969 " fill-rule="nonzero"/></g></g></svg>