<svg xmlns="http://www.w3.org/2000/svg" xmlns:xlink="http://www.w3.org/1999/xlink" width="400" zoomAndPan="magnify" viewBox="0 0 300 299.999988" height="400" preserveAspectRatio="xMidYMid meet" version="1.0"><defs><clipPath id="c962239cb8"><path d="M 144 6.507812 L 300 6.507812 L 300 293.757812 L 144 293.757812 Z M 144 6.507812 " clip-rule="nonzero"/></clipPath><clipPath id="4300ea7ed8"><path d="M 155.769531 274.324219 C 156.535156 268.101562 161.417969 263.210938 166.519531 259.566406 C 171.78125 255.808594 177.578125 252.808594 183.679688 250.683594 C 180.070312 259.734375 173.292969 267.484375 164.808594 272.269531 C 169.113281 272.058594 173.414062 271.851562 177.714844 271.644531 C 178.398438 271.609375 179.132812 271.558594 179.664062 271.128906 C 180.414062 270.523438 180.476562 269.425781 180.546875 268.46875 C 181.414062 256.753906 191.898438 248.429688 201.472656 241.640625 C 199.171875 242.105469 198.347656 245.039062 198.648438 247.367188 C 198.945312 249.695312 199.878906 252.058594 199.257812 254.320312 C 198.847656 255.832031 197.789062 257.070312 196.761719 258.257812 C 193.382812 262.152344 190.003906 266.046875 186.625 269.945312 C 191.03125 267.082031 196.457031 265.835938 201.671875 266.488281 C 201.300781 256.652344 205.332031 246.738281 212.460938 239.957031 C 215.554688 237.011719 219.515625 234.003906 219.515625 229.730469 C 218.597656 235.234375 219.648438 240.882812 219.128906 246.441406 C 218.605469 251.992188 215.8125 258.035156 210.449219 259.558594 C 216.453125 257.273438 223.269531 254.085938 224.703125 247.820312 C 225.382812 244.839844 224.648438 241.730469 224.726562 238.679688 C 224.933594 230.996094 230.140625 224.484375 235.097656 218.617188 C 233.054688 222.390625 232.523438 226.957031 233.636719 231.101562 C 234.222656 233.292969 235.253906 235.386719 235.425781 237.648438 C 235.601562 239.910156 234.582031 242.511719 232.414062 243.164062 C 238.152344 239.265625 241.648438 232.273438 241.324219 225.339844 C 241.136719 221.253906 239.726562 217.148438 240.609375 213.152344 C 241.828125 207.632812 247.183594 203.523438 247.652344 197.890625 C 245.945312 203.320312 248.179688 209.089844 249.335938 214.664062 C 250.496094 220.242188 249.921875 227.238281 244.910156 229.9375 C 248.363281 227.089844 251.433594 223.769531 254.003906 220.105469 C 255.230469 218.355469 256.394531 216.28125 255.949219 214.195312 C 255.640625 212.753906 254.625 211.59375 253.804688 210.375 C 248.277344 202.144531 251.59375 191.113281 255.066406 181.828125 C 252.722656 183.996094 253.21875 187.914062 254.789062 190.699219 C 256.359375 193.480469 258.777344 195.757812 260.054688 198.6875 C 261.976562 203.09375 261.003906 208.203125 259.550781 212.789062 C 260.410156 209.539062 262.789062 206.960938 264.601562 204.128906 C 266.410156 201.296875 267.671875 197.605469 266.082031 194.644531 C 265.367188 193.304688 264.15625 192.3125 263.167969 191.160156 C 257.953125 185.078125 259.460938 175.929688 261.261719 168.117188 C 259.769531 170.824219 262.019531 174.089844 264.445312 176 C 266.871094 177.90625 269.863281 179.75 270.414062 182.792969 C 271.0625 186.402344 267.867188 189.726562 268.011719 193.386719 C 272.414062 187.882812 273.308594 179.800781 270.21875 173.460938 C 268.777344 170.5 266.582031 167.96875 264.992188 165.085938 C 263.398438 162.203125 262.4375 158.667969 263.699219 155.625 C 264.242188 154.320312 265.167969 153.179688 265.574219 151.824219 C 265.980469 150.464844 265.617188 148.691406 264.300781 148.183594 C 265.539062 152.488281 269.710938 155.128906 272.796875 158.367188 C 275.886719 161.609375 277.832031 167.273438 274.492188 170.257812 C 275.324219 166.234375 276.160156 162.214844 276.996094 158.195312 C 277.257812 156.925781 277.519531 155.585938 277.121094 154.351562 C 276.488281 152.378906 274.4375 151.304688 272.726562 150.132812 C 265.925781 145.480469 262.769531 136.117188 265.367188 128.289062 C 265.839844 132.46875 270.183594 134.839844 273.6875 137.15625 C 277.191406 139.472656 280.601562 143.898438 278.421875 147.488281 C 279.265625 141.054688 278.753906 133.070312 272.984375 130.105469 C 271.660156 129.425781 270.175781 129.097656 268.898438 128.335938 C 263.277344 124.984375 264.925781 116.175781 261.265625 110.746094 C 262.550781 114.675781 267.265625 116.007812 271.03125 117.71875 C 274.792969 119.429688 278.488281 123.972656 276 127.273438 C 276.679688 122.167969 277 116.085938 273.023438 112.816406 C 271.214844 111.332031 268.847656 110.765625 266.707031 109.824219 C 259.988281 106.871094 255.375 99.652344 255.519531 92.308594 C 256.921875 96.421875 261.898438 97.777344 266.042969 99.085938 C 270.1875 100.394531 274.902344 103.558594 274.074219 107.824219 C 273.050781 103.472656 271.777344 98.726562 268.109375 96.167969 C 265.425781 94.296875 261.984375 93.996094 258.914062 92.859375 C 253.234375 90.75 248.855469 85.46875 247.828125 79.492188 C 248.753906 82.925781 253.664062 82.296875 257.207031 82.554688 C 261.558594 82.871094 265.570312 85.976562 266.863281 90.640625 C 267.136719 86.011719 263.585938 81.917969 259.488281 79.761719 C 255.382812 77.613281 250.710938 76.886719 246.289062 75.515625 C 241.867188 74.144531 237.371094 71.847656 235.199219 67.757812 C 238.332031 69.367188 242.085938 68.363281 245.601562 68.160156 C 249.117188 67.953125 253.476562 69.375 253.953125 72.867188 C 252.375 68.832031 248.730469 65.671875 244.515625 64.675781 C 240.550781 63.738281 236.230469 64.617188 232.441406 63.109375 C 229.113281 61.78125 226.746094 58.832031 224.542969 56 C 225.835938 57.65625 228.378906 57.625 230.363281 56.945312 C 232.347656 56.265625 234.214844 55.09375 236.3125 54.953125 C 238.890625 54.789062 241.292969 56.222656 243.320312 57.828125 C 240.542969 55.191406 236.757812 53.660156 232.933594 53.625 C 230.535156 53.601562 228.152344 54.140625 225.757812 54.101562 C 220.6875 54.027344 215.746094 51.1875 213.125 46.839844 C 216.324219 48.140625 220.027344 49.429688 223.101562 47.847656 C 224.691406 47.027344 225.878906 45.523438 227.542969 44.867188 C 229.210938 44.214844 231.707031 45.179688 231.460938 46.949219 C 227.632812 43.648438 222.296875 42.167969 217.316406 43.035156 C 214.085938 43.597656 210.898438 45.082031 207.671875 44.519531 C 204.375 43.941406 201.839844 41.359375 199.550781 38.917969 C 201.890625 39.960938 204.636719 40.058594 207.046875 39.175781 C 208.4375 38.667969 209.726562 37.847656 211.179688 37.554688 C 214.957031 36.785156 218.410156 39.679688 221.1875 42.359375 C 219.757812 39.054688 216.011719 37.261719 212.421875 37.03125 C 208.832031 36.800781 205.296875 37.828125 201.800781 38.679688 C 198.304688 39.53125 194.621094 40.214844 191.140625 39.308594 C 189.550781 38.894531 187.761719 37.550781 188.285156 35.996094 C 191.054688 36.75 193.753906 34.867188 196.199219 33.367188 C 198.644531 31.867188 202.066406 30.769531 204.15625 32.722656 C 204.832031 33.351562 205.253906 34.222656 205.988281 34.773438 C 206.726562 35.324219 208.011719 35.339844 207.855469 34.578125 C 206.261719 32.566406 204.125 30.335938 201.601562 30.804688 C 200.382812 31.03125 199.382812 31.863281 198.3125 32.496094 C 195.230469 34.3125 191.484375 34.457031 187.914062 34.550781 C 183.960938 34.65625 179.726562 34.6875 176.414062 32.523438 C 178.542969 33.109375 180.890625 32.855469 182.839844 31.816406 C 185.109375 30.613281 186.738281 28.472656 188.914062 27.109375 C 191.085938 25.742188 194.425781 25.480469 195.832031 27.625 C 193.332031 26.210938 190.441406 24.753906 187.714844 25.648438 C 186.546875 26.03125 185.558594 26.8125 184.523438 27.484375 C 178.980469 31.066406 171.472656 31.34375 165.675781 28.191406 C 168.402344 28.972656 171.550781 28.019531 173.386719 25.851562 C 174.414062 24.640625 175.058594 23.09375 176.308594 22.117188 C 177.554688 21.132812 179.804688 21.140625 180.351562 22.632812 C 176.050781 21.917969 171.679688 21.628906 167.324219 21.769531 C 164.773438 21.851562 162.1875 22.078125 159.675781 21.613281 C 157.164062 21.148438 154.660156 19.867188 153.410156 17.632812 C 157.132812 19.253906 161.351562 17.59375 165.359375 16.953125 C 170.265625 16.171875 175.414062 17.011719 179.820312 19.316406 C 173.964844 18.203125 169.335938 12.503906 169.445312 6.542969 C 170.109375 9.667969 173.648438 11.066406 176.582031 12.324219 C 182.644531 14.917969 188.050781 19.03125 192.164062 24.1875 C 187.507812 19.570312 184.511719 13.304688 183.847656 6.777344 C 183.703125 8.824219 185.242188 10.648438 187.019531 11.667969 C 188.792969 12.6875 190.839844 13.132812 192.722656 13.945312 C 195.597656 15.183594 198.09375 17.304688 199.78125 19.945312 C 201.78125 23.074219 202.871094 27.113281 206.117188 28.929688 C 203.460938 26.707031 201.679688 23.460938 201.230469 20.023438 C 200.835938 16.992188 201.308594 13.507812 199.242188 11.261719 C 199.789062 14.570312 203.917969 15.582031 206.671875 17.480469 C 210.089844 19.832031 211.640625 24 213.324219 27.785156 C 215.011719 31.570312 217.4375 35.566406 221.433594 36.65625 C 218.082031 35.296875 215.886719 31.53125 216.347656 27.941406 C 216.484375 26.875 216.832031 25.828125 216.816406 24.753906 C 216.785156 22.902344 215.691406 21.230469 214.433594 19.871094 C 216.207031 22.929688 219.988281 24.140625 222.519531 26.605469 C 227.738281 31.695312 227.265625 41.617188 233.808594 44.820312 C 232.226562 43.691406 231.503906 41.632812 231.601562 39.691406 C 231.707031 37.753906 232.53125 35.917969 233.546875 34.265625 C 234.066406 33.414062 234.652344 32.558594 234.761719 31.566406 C 234.871094 30.578125 234.289062 29.425781 233.304688 29.308594 C 234.097656 30.496094 234.890625 31.683594 235.683594 32.867188 C 238.050781 36.410156 240.46875 40.082031 241.214844 44.273438 C 241.558594 46.230469 241.53125 48.25 241.996094 50.179688 C 242.464844 52.109375 243.585938 54.042969 245.433594 54.761719 C 244.46875 52.902344 243.480469 50.765625 244.183594 48.792969 C 244.753906 47.179688 246.296875 46.160156 247.355469 44.820312 C 248.414062 43.480469 248.8125 41.1875 247.359375 40.296875 C 247.542969 42.742188 249.664062 44.507812 250.964844 46.582031 C 253.242188 50.214844 252.988281 54.808594 253.242188 59.089844 C 253.5 63.371094 254.765625 68.210938 258.605469 70.121094 C 257.152344 68.371094 255.609375 66.089844 256.511719 63.996094 C 257.128906 62.5625 258.6875 61.816406 259.792969 60.710938 C 261.523438 58.980469 262.082031 56.167969 261.136719 53.902344 C 263.953125 57.699219 265.636719 62.328125 265.914062 67.046875 C 266.195312 71.808594 265.117188 76.804688 267.40625 81.585938 C 267.875 83.238281 268.339844 84.886719 268.808594 86.539062 C 267.214844 80.765625 268.957031 74.199219 273.195312 69.976562 C 274.882812 75.902344 276.589844 82.117188 275.3125 88.148438 C 274.734375 90.859375 273.574219 93.421875 273.042969 96.140625 C 272.511719 98.859375 272.722656 101.945312 274.570312 104.011719 C 274.066406 100.070312 275.960938 96.128906 278.695312 93.253906 C 281.433594 90.378906 284.941406 88.382812 288.390625 86.429688 C 286.375 87.941406 285.789062 90.722656 285.832031 93.246094 C 285.878906 95.769531 286.40625 98.304688 286.003906 100.796875 C 285.4375 104.269531 283.152344 107.175781 281.621094 110.347656 C 278.882812 116.027344 278.597656 122.535156 278.359375 128.835938 C 278.914062 124.5625 281.34375 120.707031 284.414062 117.6875 C 287.488281 114.667969 291.191406 112.378906 294.878906 110.15625 C 292.632812 111.332031 291.5625 113.960938 291.089844 116.453125 C 290.613281 118.945312 290.542969 121.554688 289.511719 123.871094 C 288.148438 126.921875 285.3125 129.035156 283.429688 131.796875 C 280.421875 136.226562 280.109375 141.890625 279.898438 147.246094 C 281.472656 142.390625 283.597656 137.039062 288.289062 135.03125 C 289.5625 134.484375 290.945312 134.234375 292.230469 133.71875 C 294.804688 132.683594 296.917969 130.550781 297.925781 127.964844 C 295.160156 131.113281 296.820312 136.128906 295.40625 140.070312 C 294.003906 143.976562 289.925781 146.101562 286.972656 149.015625 C 281.058594 154.84375 279.75 163.761719 278.835938 172.019531 C 279.320312 166.539062 284.828125 162.710938 290.253906 161.8125 C 292.238281 161.484375 294.289062 161.429688 296.179688 160.742188 C 298.066406 160.050781 299.832031 158.511719 300.023438 156.507812 C 297.746094 162.304688 295.335938 168.304688 290.785156 172.550781 C 288.277344 174.894531 285.238281 176.578125 282.554688 178.726562 C 277.320312 182.910156 273.535156 188.875 271.96875 195.390625 C 272.308594 192.53125 274.277344 190.074219 276.660156 188.457031 C 279.042969 186.84375 281.820312 185.949219 284.5625 185.070312 C 288.613281 183.773438 292.667969 182.472656 296.71875 181.175781 C 293.75 181.292969 292.667969 184.996094 291.445312 187.707031 C 289.066406 193.003906 283.671875 196.261719 278.3125 198.5 C 276.261719 199.359375 274.148438 200.128906 272.296875 201.367188 C 268.863281 203.65625 266.636719 207.324219 264.113281 211.882812 C 272.238281 206.039062 282.167969 202.753906 292.171875 202.589844 C 285.414062 207.636719 281.101562 215.921875 273.359375 219.273438 C 269.800781 220.8125 265.828125 221.144531 262.183594 222.480469 C 257.3125 224.269531 253.285156 227.757812 249.378906 231.171875 C 258.40625 224.464844 270.386719 223.730469 281.617188 223.246094 C 273.585938 224.515625 270.070312 234.339844 263.011719 238.371094 C 258.25 241.085938 252.453125 240.863281 246.988281 241.226562 C 241.527344 241.589844 235.472656 243.027344 232.53125 247.652344 C 237.421875 245.3125 242.746094 242.914062 248.0625 243.957031 C 250.925781 244.519531 253.511719 246.046875 256.347656 246.738281 C 259.183594 247.429688 262.664062 247 264.234375 244.535156 C 259.714844 247.308594 255.199219 250.078125 250.679688 252.847656 C 247.730469 254.65625 244.730469 256.488281 241.390625 257.382812 C 236.777344 258.617188 231.898438 257.972656 227.121094 258.007812 C 222.34375 258.046875 217.15625 258.996094 213.972656 262.5625 C 217.609375 261.285156 221.5 259.992188 225.25 260.878906 C 227.539062 261.421875 229.558594 262.730469 231.671875 263.757812 C 236.136719 265.921875 241.195312 266.835938 246.132812 266.382812 C 238.507812 268.078125 231.847656 273.605469 224.035156 273.804688 C 220.167969 273.902344 216.410156 272.664062 212.605469 271.957031 C 207.382812 270.984375 201.976562 271.015625 196.765625 272.046875 C 200.433594 271.210938 204.648438 270.484375 207.65625 272.746094 C 209.503906 274.144531 210.46875 276.398438 211.9375 278.1875 C 214.253906 281.027344 217.957031 282.671875 221.613281 282.488281 C 214.625 283.050781 207.535156 283.605469 200.652344 282.28125 C 190.984375 280.417969 181.597656 274.875 171.921875 276.699219 C 177.394531 276.496094 182.835938 279.796875 185.191406 284.746094 C 186.582031 287.664062 186.96875 291.046875 188.785156 293.71875 C 189.65625 291.964844 187.871094 289.890625 185.953125 289.53125 C 184.035156 289.164062 182.09375 289.855469 180.15625 290.136719 C 175.703125 290.773438 171.261719 289.183594 167.039062 287.621094 C 164.804688 286.796875 162.445312 285.878906 161.023438 283.964844 C 159.671875 282.152344 159.304688 279.601562 157.515625 278.21875 C 154.097656 275.585938 149.035156 279.335938 144.917969 278.058594 C 144.675781 276.953125 144.765625 275.777344 145.179688 274.722656 C 148.75 274.210938 152.378906 274.183594 155.769531 274.324219 Z M 155.769531 274.324219 " clip-rule="nonzero"/></clipPath><linearGradient x1="455.141989" gradientTransform="matrix(0.371634, 0, 0, 0.37194, -50.084442, -27.411169)" y1="442.030774" x2="1003.630879" gradientUnits="userSpaceOnUse" y2="549.804491" id="f44fb407d7"><stop stop-opacity="1" stop-color="rgb(78.819275%, 61.959839%, 36.468506%)" offset="0"/><stop stop-opacity="1" stop-color="rgb(78.819275%, 61.959839%, 36.468506%)" offset="0.03125"/><stop stop-opacity="1" stop-color="rgb(78.819275%, 61.959839%, 36.468506%)" offset="0.046875"/><stop stop-opacity="1" stop-color="rgb(78.912354%, 62.088013%, 36.53717%)" offset="0.0546875"/><stop stop-opacity="1" stop-color="rgb(79.240417%, 62.533569%, 36.775208%)" offset="0.0585938"/><stop stop-opacity="1" stop-color="rgb(79.475403%, 62.852478%, 36.946106%)" offset="0.0625"/><stop stop-opacity="1" stop-color="rgb(79.708862%, 63.171387%, 37.115479%)" offset="0.0664062"/><stop stop-opacity="1" stop-color="rgb(79.943848%, 63.490295%, 37.286377%)" offset="0.0703125"/><stop stop-opacity="1" stop-color="rgb(80.177307%, 63.809204%, 37.45575%)" offset="0.0742188"/><stop stop-opacity="1" stop-color="rgb(80.412292%, 64.128113%, 37.626648%)" offset="0.078125"/><stop stop-opacity="1" stop-color="rgb(80.645752%, 64.445496%, 37.796021%)" offset="0.0820313"/><stop stop-opacity="1" stop-color="rgb(80.880737%, 64.764404%, 37.966919%)" offset="0.0859375"/><stop stop-opacity="1" stop-color="rgb(81.114197%, 65.083313%, 38.136292%)" offset="0.0898438"/><stop stop-opacity="1" stop-color="rgb(81.349182%, 65.402222%, 38.30719%)" offset="0.09375"/><stop stop-opacity="1" stop-color="rgb(81.582642%, 65.719604%, 38.476562%)" offset="0.0976563"/><stop stop-opacity="1" stop-color="rgb(81.816101%, 66.038513%, 38.647461%)" offset="0.101563"/><stop stop-opacity="1" stop-color="rgb(82.049561%, 66.357422%, 38.816833%)" offset="0.105469"/><stop stop-opacity="1" stop-color="rgb(82.284546%, 66.676331%, 38.987732%)" offset="0.109375"/><stop stop-opacity="1" stop-color="rgb(82.518005%, 66.995239%, 39.157104%)" offset="0.113281"/><stop stop-opacity="1" stop-color="rgb(82.752991%, 67.314148%, 39.328003%)" offset="0.117188"/><stop stop-opacity="1" stop-color="rgb(83.000183%, 67.652893%, 39.508057%)" offset="0.121094"/><stop stop-opacity="1" stop-color="rgb(83.247375%, 67.993164%, 39.689636%)" offset="0.125"/><stop stop-opacity="1" stop-color="rgb(83.555603%, 68.432617%, 39.920044%)" offset="0.128906"/><stop stop-opacity="1" stop-color="rgb(83.863831%, 68.873596%, 40.151978%)" offset="0.132812"/><stop stop-opacity="1" stop-color="rgb(84.172058%, 69.314575%, 40.382385%)" offset="0.136719"/><stop stop-opacity="1" stop-color="rgb(84.480286%, 69.755554%, 40.614319%)" offset="0.140625"/><stop stop-opacity="1" stop-color="rgb(84.788513%, 70.195007%, 40.844727%)" offset="0.144531"/><stop stop-opacity="1" stop-color="rgb(85.096741%, 70.635986%, 41.07666%)" offset="0.148438"/><stop stop-opacity="1" stop-color="rgb(85.403442%, 71.075439%, 41.307068%)" offset="0.152344"/><stop stop-opacity="1" stop-color="rgb(85.71167%, 71.516418%, 41.537476%)" offset="0.15625"/><stop stop-opacity="1" stop-color="rgb(86.019897%, 71.955872%, 41.767883%)" offset="0.160156"/><stop stop-opacity="1" stop-color="rgb(86.328125%, 72.396851%, 41.999817%)" offset="0.164063"/><stop stop-opacity="1" stop-color="rgb(86.636353%, 72.836304%, 42.230225%)" offset="0.167969"/><stop stop-opacity="1" stop-color="rgb(86.94458%, 73.277283%, 42.462158%)" offset="0.171875"/><stop stop-opacity="1" stop-color="rgb(87.252808%, 73.716736%, 42.692566%)" offset="0.175781"/><stop stop-opacity="1" stop-color="rgb(87.561035%, 74.157715%, 42.922974%)" offset="0.179688"/><stop stop-opacity="1" stop-color="rgb(87.869263%, 74.597168%, 43.153381%)" offset="0.183594"/><stop stop-opacity="1" stop-color="rgb(88.17749%, 75.038147%, 43.385315%)" offset="0.1875"/><stop stop-opacity="1" stop-color="rgb(88.485718%, 75.4776%, 43.615723%)" offset="0.191406"/><stop stop-opacity="1" stop-color="rgb(88.793945%, 75.918579%, 43.847656%)" offset="0.195313"/><stop stop-opacity="1" stop-color="rgb(89.102173%, 76.358032%, 44.078064%)" offset="0.199219"/><stop stop-opacity="1" stop-color="rgb(89.4104%, 76.799011%, 44.309998%)" offset="0.203125"/><stop stop-opacity="1" stop-color="rgb(89.717102%, 77.23999%, 44.540405%)" offset="0.207031"/><stop stop-opacity="1" stop-color="rgb(90.02533%, 77.680969%, 44.770813%)" offset="0.210938"/><stop stop-opacity="1" stop-color="rgb(90.333557%, 78.120422%, 45.001221%)" offset="0.214844"/><stop stop-opacity="1" stop-color="rgb(90.641785%, 78.561401%, 45.233154%)" offset="0.21875"/><stop stop-opacity="1" stop-color="rgb(90.950012%, 79.000854%, 45.463562%)" offset="0.222656"/><stop stop-opacity="1" stop-color="rgb(91.25824%, 79.441833%, 45.695496%)" offset="0.226562"/><stop stop-opacity="1" stop-color="rgb(91.566467%, 79.881287%, 45.925903%)" offset="0.230469"/><stop stop-opacity="1" stop-color="rgb(91.874695%, 80.322266%, 46.156311%)" offset="0.234375"/><stop stop-opacity="1" stop-color="rgb(92.182922%, 80.761719%, 46.386719%)" offset="0.238281"/><stop stop-opacity="1" stop-color="rgb(92.49115%, 81.202698%, 46.618652%)" offset="0.242188"/><stop stop-opacity="1" stop-color="rgb(92.799377%, 81.642151%, 46.84906%)" offset="0.246094"/><stop stop-opacity="1" stop-color="rgb(93.107605%, 82.08313%, 47.080994%)" offset="0.25"/><stop stop-opacity="1" stop-color="rgb(93.415833%, 82.522583%, 47.311401%)" offset="0.253906"/><stop stop-opacity="1" stop-color="rgb(93.72406%, 82.963562%, 47.543335%)" offset="0.257812"/><stop stop-opacity="1" stop-color="rgb(94.042969%, 83.424377%, 47.779846%)" offset="0.261719"/><stop stop-opacity="1" stop-color="rgb(94.361877%, 83.885193%, 48.016357%)" offset="0.265625"/><stop stop-opacity="1" stop-color="rgb(94.699097%, 84.381104%, 48.265076%)" offset="0.269531"/><stop stop-opacity="1" stop-color="rgb(95.037842%, 84.877014%, 48.513794%)" offset="0.273438"/><stop stop-opacity="1" stop-color="rgb(95.375061%, 85.372925%, 48.762512%)" offset="0.277344"/><stop stop-opacity="1" stop-color="rgb(95.713806%, 85.868835%, 49.01123%)" offset="0.28125"/><stop stop-opacity="1" stop-color="rgb(96.051025%, 86.364746%, 49.258423%)" offset="0.285156"/><stop stop-opacity="1" stop-color="rgb(96.389771%, 86.862183%, 49.507141%)" offset="0.289062"/><stop stop-opacity="1" stop-color="rgb(96.72699%, 87.358093%, 49.755859%)" offset="0.292969"/><stop stop-opacity="1" stop-color="rgb(97.065735%, 87.854004%, 50.004578%)" offset="0.296875"/><stop stop-opacity="1" stop-color="rgb(97.402954%, 88.349915%, 50.25177%)" offset="0.300781"/><stop stop-opacity="1" stop-color="rgb(97.741699%, 88.845825%, 50.500488%)" offset="0.304688"/><stop stop-opacity="1" stop-color="rgb(98.078918%, 89.341736%, 50.749207%)" offset="0.308594"/><stop stop-opacity="1" stop-color="rgb(98.417664%, 89.839172%, 50.997925%)" offset="0.3125"/><stop stop-opacity="1" stop-color="rgb(98.754883%, 90.335083%, 51.245117%)" offset="0.316406"/><stop stop-opacity="1" stop-color="rgb(99.093628%, 90.830994%, 51.493835%)" offset="0.320312"/><stop stop-opacity="1" stop-color="rgb(99.430847%, 91.326904%, 51.742554%)" offset="0.324219"/><stop stop-opacity="1" stop-color="rgb(99.769592%, 91.822815%, 51.991272%)" offset="0.328125"/><stop stop-opacity="1" stop-color="rgb(99.884033%, 91.990662%, 52.326965%)" offset="0.332031"/><stop stop-opacity="1" stop-color="rgb(100%, 92.158508%, 52.662659%)" offset="0.335938"/><stop stop-opacity="1" stop-color="rgb(100%, 92.158508%, 53.044128%)" offset="0.339844"/><stop stop-opacity="1" stop-color="rgb(100%, 92.158508%, 53.425598%)" offset="0.34375"/><stop stop-opacity="1" stop-color="rgb(100%, 92.158508%, 53.805542%)" offset="0.347656"/><stop stop-opacity="1" stop-color="rgb(100%, 92.158508%, 54.187012%)" offset="0.351563"/><stop stop-opacity="1" stop-color="rgb(100%, 92.158508%, 54.568481%)" offset="0.355469"/><stop stop-opacity="1" stop-color="rgb(100%, 92.158508%, 54.949951%)" offset="0.359375"/><stop stop-opacity="1" stop-color="rgb(100%, 92.158508%, 55.329895%)" offset="0.363281"/><stop stop-opacity="1" stop-color="rgb(100%, 92.158508%, 55.711365%)" offset="0.367188"/><stop stop-opacity="1" stop-color="rgb(100%, 92.158508%, 56.092834%)" offset="0.371094"/><stop stop-opacity="1" stop-color="rgb(100%, 92.158508%, 56.474304%)" offset="0.375"/><stop stop-opacity="1" stop-color="rgb(100%, 92.158508%, 56.854248%)" offset="0.378906"/><stop stop-opacity="1" stop-color="rgb(100%, 92.158508%, 57.235718%)" offset="0.382813"/><stop stop-opacity="1" stop-color="rgb(100%, 92.158508%, 57.617188%)" offset="0.386719"/><stop stop-opacity="1" stop-color="rgb(100%, 92.158508%, 57.998657%)" offset="0.390625"/><stop stop-opacity="1" stop-color="rgb(100%, 92.158508%, 58.378601%)" offset="0.394531"/><stop stop-opacity="1" stop-color="rgb(100%, 92.158508%, 58.760071%)" offset="0.398438"/><stop stop-opacity="1" stop-color="rgb(100%, 92.158508%, 59.140015%)" offset="0.402344"/><stop stop-opacity="1" stop-color="rgb(100%, 92.158508%, 59.521484%)" offset="0.40625"/><stop stop-opacity="1" stop-color="rgb(100%, 92.158508%, 59.902954%)" offset="0.410156"/><stop stop-opacity="1" stop-color="rgb(100%, 92.158508%, 60.284424%)" offset="0.414063"/><stop stop-opacity="1" stop-color="rgb(100%, 92.158508%, 60.664368%)" offset="0.417969"/><stop stop-opacity="1" stop-color="rgb(100%, 92.158508%, 61.045837%)" offset="0.421875"/><stop stop-opacity="1" stop-color="rgb(100%, 92.158508%, 61.427307%)" offset="0.425781"/><stop stop-opacity="1" stop-color="rgb(100%, 92.158508%, 61.808777%)" offset="0.429688"/><stop stop-opacity="1" stop-color="rgb(100%, 92.158508%, 62.188721%)" offset="0.433594"/><stop stop-opacity="1" stop-color="rgb(100%, 92.158508%, 62.57019%)" offset="0.4375"/><stop stop-opacity="1" stop-color="rgb(100%, 92.158508%, 62.95166%)" offset="0.441406"/><stop stop-opacity="1" stop-color="rgb(100%, 92.158508%, 63.33313%)" offset="0.445313"/><stop stop-opacity="1" stop-color="rgb(100%, 92.158508%, 63.713074%)" offset="0.449219"/><stop stop-opacity="1" stop-color="rgb(100%, 92.158508%, 64.094543%)" offset="0.453125"/><stop stop-opacity="1" stop-color="rgb(100%, 92.158508%, 64.476013%)" offset="0.457031"/><stop stop-opacity="1" stop-color="rgb(100%, 92.158508%, 64.857483%)" offset="0.460938"/><stop stop-opacity="1" stop-color="rgb(100%, 92.158508%, 65.237427%)" offset="0.464844"/><stop stop-opacity="1" stop-color="rgb(100%, 92.158508%, 65.618896%)" offset="0.46875"/><stop stop-opacity="1" stop-color="rgb(100%, 92.158508%, 65.99884%)" offset="0.472656"/><stop stop-opacity="1" stop-color="rgb(100%, 92.158508%, 66.38031%)" offset="0.476563"/><stop stop-opacity="1" stop-color="rgb(100%, 92.158508%, 66.76178%)" offset="0.480469"/><stop stop-opacity="1" stop-color="rgb(100%, 92.158508%, 67.14325%)" offset="0.484375"/><stop stop-opacity="1" stop-color="rgb(99.975586%, 92.129517%, 67.460632%)" offset="0.488281"/><stop stop-opacity="1" stop-color="rgb(99.952698%, 92.102051%, 67.778015%)" offset="0.492188"/><stop stop-opacity="1" stop-color="rgb(99.684143%, 91.773987%, 67.419434%)" offset="0.496094"/><stop stop-opacity="1" stop-color="rgb(99.415588%, 91.445923%, 67.062378%)" offset="0.5"/><stop stop-opacity="1" stop-color="rgb(99.147034%, 91.116333%, 66.705322%)" offset="0.503906"/><stop stop-opacity="1" stop-color="rgb(98.878479%, 90.788269%, 66.348267%)" offset="0.507813"/><stop stop-opacity="1" stop-color="rgb(98.609924%, 90.458679%, 65.989685%)" offset="0.511719"/><stop stop-opacity="1" stop-color="rgb(98.342896%, 90.130615%, 65.632629%)" offset="0.515625"/><stop stop-opacity="1" stop-color="rgb(98.074341%, 89.802551%, 65.275574%)" offset="0.519531"/><stop stop-opacity="1" stop-color="rgb(97.805786%, 89.474487%, 64.918518%)" offset="0.523438"/><stop stop-opacity="1" stop-color="rgb(97.537231%, 89.144897%, 64.559937%)" offset="0.527344"/><stop stop-opacity="1" stop-color="rgb(97.268677%, 88.816833%, 64.202881%)" offset="0.53125"/><stop stop-opacity="1" stop-color="rgb(97.000122%, 88.48877%, 63.845825%)" offset="0.535156"/><stop stop-opacity="1" stop-color="rgb(96.731567%, 88.160706%, 63.48877%)" offset="0.539062"/><stop stop-opacity="1" stop-color="rgb(96.3974%, 87.754822%, 63.052368%)" offset="0.542969"/><stop stop-opacity="1" stop-color="rgb(96.064758%, 87.350464%, 62.615967%)" offset="0.546875"/><stop stop-opacity="1" stop-color="rgb(95.66803%, 86.871338%, 62.103271%)" offset="0.550781"/><stop stop-opacity="1" stop-color="rgb(95.272827%, 86.392212%, 61.592102%)" offset="0.554688"/><stop stop-opacity="1" stop-color="rgb(94.876099%, 85.913086%, 61.079407%)" offset="0.558594"/><stop stop-opacity="1" stop-color="rgb(94.47937%, 85.435486%, 60.568237%)" offset="0.5625"/><stop stop-opacity="1" stop-color="rgb(94.082642%, 84.95636%, 60.055542%)" offset="0.566406"/><stop stop-opacity="1" stop-color="rgb(93.687439%, 84.47876%, 59.544373%)" offset="0.570313"/><stop stop-opacity="1" stop-color="rgb(93.29071%, 83.999634%, 59.031677%)" offset="0.574219"/><stop stop-opacity="1" stop-color="rgb(92.895508%, 83.520508%, 58.520508%)" offset="0.578125"/><stop stop-opacity="1" stop-color="rgb(92.498779%, 83.041382%, 58.007812%)" offset="0.582031"/><stop stop-opacity="1" stop-color="rgb(92.103577%, 82.563782%, 57.496643%)" offset="0.585938"/><stop stop-opacity="1" stop-color="rgb(91.706848%, 82.084656%, 56.985474%)" offset="0.589844"/><stop stop-opacity="1" stop-color="rgb(91.311646%, 81.607056%, 56.474304%)" offset="0.59375"/><stop stop-opacity="1" stop-color="rgb(90.914917%, 81.12793%, 55.961609%)" offset="0.597656"/><stop stop-opacity="1" stop-color="rgb(90.518188%, 80.648804%, 55.450439%)" offset="0.601563"/><stop stop-opacity="1" stop-color="rgb(90.12146%, 80.169678%, 54.937744%)" offset="0.605469"/><stop stop-opacity="1" stop-color="rgb(89.726257%, 79.692078%, 54.426575%)" offset="0.609375"/><stop stop-opacity="1" stop-color="rgb(89.329529%, 79.212952%, 53.913879%)" offset="0.613281"/><stop stop-opacity="1" stop-color="rgb(88.934326%, 78.735352%, 53.40271%)" offset="0.617188"/><stop stop-opacity="1" stop-color="rgb(88.537598%, 78.256226%, 52.890015%)" offset="0.621094"/><stop stop-opacity="1" stop-color="rgb(88.142395%, 77.7771%, 52.378845%)" offset="0.625"/><stop stop-opacity="1" stop-color="rgb(87.745667%, 77.297974%, 51.86615%)" offset="0.628906"/><stop stop-opacity="1" stop-color="rgb(87.350464%, 76.820374%, 51.35498%)" offset="0.632812"/><stop stop-opacity="1" stop-color="rgb(86.901855%, 76.271057%, 50.761414%)" offset="0.636719"/><stop stop-opacity="1" stop-color="rgb(86.454773%, 75.721741%, 50.167847%)" offset="0.640625"/><stop stop-opacity="1" stop-color="rgb(85.975647%, 75.1297%, 49.525452%)" offset="0.644531"/><stop stop-opacity="1" stop-color="rgb(85.498047%, 74.539185%, 48.884583%)" offset="0.648438"/><stop stop-opacity="1" stop-color="rgb(85.020447%, 73.947144%, 48.242188%)" offset="0.652344"/><stop stop-opacity="1" stop-color="rgb(84.542847%, 73.356628%, 47.601318%)" offset="0.65625"/><stop stop-opacity="1" stop-color="rgb(84.065247%, 72.764587%, 46.958923%)" offset="0.660156"/><stop stop-opacity="1" stop-color="rgb(83.587646%, 72.174072%, 46.318054%)" offset="0.664062"/><stop stop-opacity="1" stop-color="rgb(83.108521%, 71.583557%, 45.677185%)" offset="0.667969"/><stop stop-opacity="1" stop-color="rgb(82.63092%, 70.993042%, 45.036316%)" offset="0.671875"/><stop stop-opacity="1" stop-color="rgb(82.15332%, 70.401001%, 44.393921%)" offset="0.675781"/><stop stop-opacity="1" stop-color="rgb(81.67572%, 69.810486%, 43.753052%)" offset="0.679688"/><stop stop-opacity="1" stop-color="rgb(81.19812%, 69.218445%, 43.110657%)" offset="0.683594"/><stop stop-opacity="1" stop-color="rgb(80.72052%, 68.62793%, 42.469788%)" offset="0.6875"/><stop stop-opacity="1" stop-color="rgb(80.241394%, 68.035889%, 41.827393%)" offset="0.691406"/><stop stop-opacity="1" stop-color="rgb(79.763794%, 67.445374%, 41.186523%)" offset="0.695313"/><stop stop-opacity="1" stop-color="rgb(79.286194%, 66.854858%, 40.545654%)" offset="0.699219"/><stop stop-opacity="1" stop-color="rgb(78.808594%, 66.264343%, 39.904785%)" offset="0.703125"/><stop stop-opacity="1" stop-color="rgb(78.330994%, 65.672302%, 39.26239%)" offset="0.707031"/><stop stop-opacity="1" stop-color="rgb(77.853394%, 65.081787%, 38.621521%)" offset="0.710938"/><stop stop-opacity="1" stop-color="rgb(77.374268%, 64.489746%, 37.979126%)" offset="0.714844"/><stop stop-opacity="1" stop-color="rgb(76.896667%, 63.899231%, 37.338257%)" offset="0.71875"/><stop stop-opacity="1" stop-color="rgb(76.419067%, 63.30719%, 36.697388%)" offset="0.722656"/><stop stop-opacity="1" stop-color="rgb(75.941467%, 62.716675%, 36.056519%)" offset="0.726562"/><stop stop-opacity="1" stop-color="rgb(75.463867%, 62.12616%, 35.414124%)" offset="0.730469"/><stop stop-opacity="1" stop-color="rgb(74.986267%, 61.535645%, 34.773254%)" offset="0.734375"/><stop stop-opacity="1" stop-color="rgb(74.507141%, 60.943604%, 34.130859%)" offset="0.738281"/><stop stop-opacity="1" stop-color="rgb(74.029541%, 60.353088%, 33.48999%)" offset="0.742188"/><stop stop-opacity="1" stop-color="rgb(73.551941%, 59.761047%, 32.847595%)" offset="0.746094"/><stop stop-opacity="1" stop-color="rgb(73.074341%, 59.170532%, 32.206726%)" offset="0.75"/><stop stop-opacity="1" stop-color="rgb(72.592163%, 58.575439%, 31.562805%)" offset="0.753906"/><stop stop-opacity="1" stop-color="rgb(72.111511%, 57.981873%, 30.918884%)" offset="0.757812"/><stop stop-opacity="1" stop-color="rgb(71.562195%, 57.319641%, 30.206299%)" offset="0.761719"/><stop stop-opacity="1" stop-color="rgb(71.012878%, 56.65741%, 29.493713%)" offset="0.765625"/><stop stop-opacity="1" stop-color="rgb(70.462036%, 55.995178%, 28.781128%)" offset="0.769531"/><stop stop-opacity="1" stop-color="rgb(69.91272%, 55.332947%, 28.070068%)" offset="0.773438"/><stop stop-opacity="1" stop-color="rgb(69.363403%, 54.670715%, 27.357483%)" offset="0.777344"/><stop stop-opacity="1" stop-color="rgb(68.814087%, 54.008484%, 26.646423%)" offset="0.78125"/><stop stop-opacity="1" stop-color="rgb(68.263245%, 53.346252%, 25.933838%)" offset="0.785156"/><stop stop-opacity="1" stop-color="rgb(67.713928%, 52.684021%, 25.222778%)" offset="0.789063"/><stop stop-opacity="1" stop-color="rgb(67.163086%, 52.02179%, 24.510193%)" offset="0.792969"/><stop stop-opacity="1" stop-color="rgb(66.61377%, 51.359558%, 23.799133%)" offset="0.796875"/><stop stop-opacity="1" stop-color="rgb(66.064453%, 50.697327%, 23.086548%)" offset="0.800781"/><stop stop-opacity="1" stop-color="rgb(65.515137%, 50.035095%, 22.375488%)" offset="0.804688"/><stop stop-opacity="1" stop-color="rgb(64.964294%, 49.372864%, 21.662903%)" offset="0.808594"/><stop stop-opacity="1" stop-color="rgb(64.414978%, 48.710632%, 20.950317%)" offset="0.8125"/><stop stop-opacity="1" stop-color="rgb(63.864136%, 48.048401%, 20.237732%)" offset="0.816406"/><stop stop-opacity="1" stop-color="rgb(63.314819%, 47.386169%, 19.526672%)" offset="0.820313"/><stop stop-opacity="1" stop-color="rgb(62.765503%, 46.723938%, 18.814087%)" offset="0.824219"/><stop stop-opacity="1" stop-color="rgb(62.216187%, 46.061707%, 18.103027%)" offset="0.828125"/><stop stop-opacity="1" stop-color="rgb(61.665344%, 45.399475%, 17.390442%)" offset="0.832031"/><stop stop-opacity="1" stop-color="rgb(61.116028%, 44.737244%, 16.679382%)" offset="0.835938"/><stop stop-opacity="1" stop-color="rgb(60.565186%, 44.075012%, 15.966797%)" offset="0.839844"/><stop stop-opacity="1" stop-color="rgb(60.015869%, 43.412781%, 15.255737%)" offset="0.84375"/><stop stop-opacity="1" stop-color="rgb(59.466553%, 42.750549%, 14.543152%)" offset="0.847656"/><stop stop-opacity="1" stop-color="rgb(58.917236%, 42.088318%, 13.832092%)" offset="0.851562"/><stop stop-opacity="1" stop-color="rgb(58.366394%, 41.426086%, 13.119507%)" offset="0.855469"/><stop stop-opacity="1" stop-color="rgb(57.817078%, 40.763855%, 12.406921%)" offset="0.859375"/><stop stop-opacity="1" stop-color="rgb(57.266235%, 40.101624%, 11.694336%)" offset="0.863281"/><stop stop-opacity="1" stop-color="rgb(56.716919%, 39.439392%, 10.983276%)" offset="0.867188"/><stop stop-opacity="1" stop-color="rgb(56.167603%, 38.777161%, 10.270691%)" offset="0.871094"/><stop stop-opacity="1" stop-color="rgb(55.618286%, 38.114929%, 9.559631%)" offset="0.875"/><stop stop-opacity="1" stop-color="rgb(55.258179%, 37.68158%, 9.094238%)" offset="0.878906"/><stop stop-opacity="1" stop-color="rgb(54.899597%, 37.249756%, 8.628845%)" offset="0.882812"/><stop stop-opacity="1" stop-color="rgb(54.899597%, 37.249756%, 8.628845%)" offset="0.890625"/><stop stop-opacity="1" stop-color="rgb(54.899597%, 37.249756%, 8.628845%)" offset="0.90625"/><stop stop-opacity="1" stop-color="rgb(54.899597%, 37.249756%, 8.628845%)" offset="0.9375"/><stop stop-opacity="1" stop-color="rgb(54.899597%, 37.249756%, 8.628845%)" offset="1"/></linearGradient><clipPath id="9c9b92bcc5"><path d="M 0 6.507812 L 154 6.507812 L 154 293.757812 L 0 293.757812 Z M 0 6.507812 " clip-rule="nonzero"/></clipPath><clipPath id="6be4dc8022"><path d="M 142.015625 274.324219 C 141.25 268.101562 136.367188 263.210938 131.269531 259.566406 C 126.007812 255.808594 120.210938 252.808594 114.105469 250.683594 C 117.71875 259.734375 124.496094 267.484375 132.980469 272.269531 C 128.675781 272.058594 124.375 271.851562 120.070312 271.644531 C 119.386719 271.609375 118.65625 271.558594 118.125 271.128906 C 117.375 270.523438 117.3125 269.425781 117.238281 268.46875 C 116.375 256.753906 105.890625 248.429688 96.316406 241.640625 C 98.617188 242.105469 99.4375 245.039062 99.140625 247.367188 C 98.84375 249.695312 97.90625 252.058594 98.527344 254.320312 C 98.941406 255.832031 100 257.070312 101.027344 258.257812 C 104.402344 262.152344 107.785156 266.046875 111.164062 269.945312 C 106.757812 267.082031 101.332031 265.835938 96.117188 266.488281 C 96.488281 256.652344 92.457031 246.738281 85.328125 239.957031 C 82.230469 237.011719 78.269531 234.003906 78.273438 229.730469 C 79.1875 235.234375 78.140625 240.882812 78.660156 246.441406 C 79.179688 251.992188 81.976562 258.035156 87.339844 259.558594 C 81.335938 257.273438 74.515625 254.085938 73.085938 247.820312 C 72.40625 244.839844 73.136719 241.730469 73.058594 238.679688 C 72.855469 230.996094 67.644531 224.484375 62.691406 218.617188 C 64.730469 222.390625 65.261719 226.957031 64.152344 231.101562 C 63.566406 233.292969 62.535156 235.386719 62.359375 237.648438 C 62.1875 239.910156 63.203125 242.511719 65.375 243.164062 C 59.636719 239.265625 56.140625 232.273438 56.464844 225.339844 C 56.652344 221.253906 58.0625 217.148438 57.179688 213.152344 C 55.960938 207.632812 50.605469 203.523438 50.132812 197.890625 C 51.84375 203.320312 49.609375 209.089844 48.449219 214.664062 C 47.292969 220.242188 47.867188 227.238281 52.875 229.9375 C 49.425781 227.089844 46.355469 223.769531 43.78125 220.105469 C 42.554688 218.355469 41.394531 216.28125 41.839844 214.195312 C 42.148438 212.753906 43.164062 211.59375 43.984375 210.375 C 49.507812 202.144531 46.195312 191.113281 42.71875 181.828125 C 45.066406 183.996094 44.570312 187.914062 43 190.699219 C 41.425781 193.480469 39.011719 195.757812 37.734375 198.6875 C 35.8125 203.09375 36.785156 208.203125 38.238281 212.789062 C 37.378906 209.539062 34.996094 206.960938 33.1875 204.128906 C 31.378906 201.296875 30.117188 197.605469 31.703125 194.644531 C 32.421875 193.304688 33.628906 192.3125 34.617188 191.160156 C 39.835938 185.078125 38.328125 175.929688 36.523438 168.117188 C 38.019531 170.824219 35.769531 174.089844 33.34375 176 C 30.917969 177.90625 27.925781 179.75 27.375 182.792969 C 26.726562 186.402344 29.921875 189.726562 29.777344 193.386719 C 25.375 187.882812 24.480469 179.800781 27.570312 173.460938 C 29.011719 170.5 31.207031 167.96875 32.796875 165.085938 C 34.386719 162.203125 35.351562 158.667969 34.085938 155.625 C 33.542969 154.320312 32.617188 153.179688 32.214844 151.824219 C 31.808594 150.464844 32.167969 148.691406 33.488281 148.183594 C 32.246094 152.488281 28.078125 155.128906 24.988281 158.367188 C 21.902344 161.609375 19.957031 167.273438 23.292969 170.257812 C 22.460938 166.234375 21.628906 162.214844 20.792969 158.195312 C 20.53125 156.925781 20.269531 155.585938 20.667969 154.351562 C 21.300781 152.378906 23.351562 151.304688 25.058594 150.132812 C 31.859375 145.480469 35.019531 136.117188 32.421875 128.289062 C 31.945312 132.46875 27.605469 134.839844 24.101562 137.15625 C 20.597656 139.472656 17.183594 143.898438 19.367188 147.488281 C 18.523438 141.054688 19.035156 133.070312 24.804688 130.105469 C 26.125 129.425781 27.613281 129.097656 28.890625 128.335938 C 34.511719 124.984375 32.859375 116.175781 36.519531 110.746094 C 35.238281 114.675781 30.523438 116.007812 26.757812 117.71875 C 22.992188 119.429688 19.300781 123.972656 21.789062 127.273438 C 21.109375 122.167969 20.785156 116.085938 24.765625 112.816406 C 26.574219 111.332031 28.941406 110.765625 31.082031 109.824219 C 37.800781 106.871094 42.410156 99.652344 42.265625 92.308594 C 40.867188 96.421875 35.890625 97.777344 31.746094 99.085938 C 27.605469 100.394531 22.886719 103.558594 23.714844 107.824219 C 24.738281 103.472656 26.011719 98.726562 29.679688 96.167969 C 32.363281 94.296875 35.804688 93.996094 38.875 92.859375 C 44.550781 90.75 48.933594 85.46875 49.960938 79.492188 C 49.035156 82.925781 44.125 82.296875 40.578125 82.554688 C 36.230469 82.871094 32.21875 85.976562 30.925781 90.640625 C 30.648438 86.011719 34.203125 81.917969 38.300781 79.761719 C 42.402344 77.613281 47.074219 76.886719 51.496094 75.515625 C 55.921875 74.144531 60.417969 71.847656 62.585938 67.757812 C 59.453125 69.367188 55.703125 68.363281 52.183594 68.160156 C 48.667969 67.953125 44.3125 69.375 43.835938 72.867188 C 45.414062 68.832031 49.054688 65.671875 53.269531 64.675781 C 57.234375 63.738281 61.558594 64.617188 65.34375 63.109375 C 68.675781 61.78125 71.042969 58.832031 73.246094 56 C 71.953125 57.65625 69.410156 57.625 67.425781 56.945312 C 65.441406 56.265625 63.574219 55.09375 61.476562 54.953125 C 58.898438 54.789062 56.496094 56.222656 54.46875 57.828125 C 57.242188 55.191406 61.03125 53.660156 64.855469 53.625 C 67.25 53.601562 69.632812 54.140625 72.03125 54.101562 C 77.101562 54.027344 82.042969 51.1875 84.664062 46.839844 C 81.460938 48.140625 77.761719 49.429688 74.6875 47.847656 C 73.097656 47.027344 71.90625 45.523438 70.242188 44.867188 C 68.578125 44.214844 66.082031 45.179688 66.328125 46.949219 C 70.152344 43.648438 75.492188 42.167969 80.46875 43.035156 C 83.699219 43.597656 86.890625 45.082031 90.113281 44.519531 C 93.414062 43.941406 95.949219 41.359375 98.238281 38.917969 C 95.898438 39.960938 93.152344 40.058594 90.742188 39.175781 C 89.347656 38.667969 88.0625 37.847656 86.609375 37.554688 C 82.832031 36.785156 79.378906 39.679688 76.601562 42.359375 C 78.027344 39.054688 81.773438 37.261719 85.363281 37.03125 C 88.953125 36.800781 92.492188 37.828125 95.984375 38.679688 C 99.484375 39.53125 103.167969 40.214844 106.648438 39.308594 C 108.234375 38.894531 110.027344 37.550781 109.503906 35.996094 C 106.734375 36.75 104.03125 34.867188 101.585938 33.367188 C 99.140625 31.867188 95.722656 30.769531 93.628906 32.722656 C 92.957031 33.351562 92.535156 34.222656 91.796875 34.773438 C 91.0625 35.324219 89.777344 35.339844 89.933594 34.578125 C 91.527344 32.566406 93.664062 30.335938 96.1875 30.804688 C 97.40625 31.03125 98.40625 31.863281 99.476562 32.496094 C 102.558594 34.3125 106.304688 34.457031 109.875 34.550781 C 113.828125 34.65625 118.0625 34.6875 121.371094 32.523438 C 119.246094 33.109375 116.898438 32.855469 114.945312 31.816406 C 112.679688 30.613281 111.046875 28.472656 108.875 27.109375 C 106.699219 25.746094 103.363281 25.480469 101.953125 27.625 C 104.457031 26.210938 107.347656 24.753906 110.074219 25.648438 C 111.242188 26.03125 112.230469 26.8125 113.261719 27.484375 C 118.808594 31.066406 126.316406 31.34375 132.113281 28.191406 C 129.386719 28.972656 126.238281 28.019531 124.402344 25.851562 C 123.375 24.640625 122.730469 23.09375 121.480469 22.117188 C 120.230469 21.132812 117.984375 21.140625 117.4375 22.632812 C 121.738281 21.917969 126.105469 21.628906 130.460938 21.769531 C 133.015625 21.851562 135.597656 22.078125 138.109375 21.613281 C 140.625 21.148438 143.128906 19.867188 144.375 17.632812 C 140.65625 19.253906 136.433594 17.59375 132.429688 16.953125 C 127.523438 16.171875 122.371094 17.011719 117.96875 19.316406 C 123.820312 18.203125 128.453125 12.503906 128.34375 6.542969 C 127.679688 9.667969 124.140625 11.066406 121.207031 12.324219 C 115.144531 14.917969 109.738281 19.03125 105.621094 24.1875 C 110.28125 19.570312 113.273438 13.304688 113.941406 6.777344 C 114.085938 8.824219 112.546875 10.648438 110.769531 11.667969 C 108.992188 12.6875 106.949219 13.132812 105.066406 13.945312 C 102.1875 15.183594 99.695312 17.304688 98.007812 19.945312 C 96.003906 23.074219 94.917969 27.113281 91.671875 28.929688 C 94.328125 26.707031 96.109375 23.460938 96.558594 20.023438 C 96.953125 16.992188 96.480469 13.507812 98.546875 11.261719 C 98 14.570312 93.871094 15.582031 91.113281 17.480469 C 87.699219 19.832031 86.148438 24 84.460938 27.785156 C 82.773438 31.570312 80.351562 35.566406 76.351562 36.65625 C 79.703125 35.296875 81.902344 31.53125 81.441406 27.941406 C 81.304688 26.875 80.957031 25.828125 80.972656 24.753906 C 81.003906 22.902344 82.097656 21.230469 83.355469 19.871094 C 81.582031 22.929688 77.796875 24.140625 75.269531 26.605469 C 70.050781 31.695312 70.523438 41.617188 63.976562 44.820312 C 65.5625 43.691406 66.285156 41.632812 66.183594 39.691406 C 66.082031 37.753906 65.257812 35.917969 64.242188 34.265625 C 63.722656 33.414062 63.132812 32.558594 63.027344 31.566406 C 62.917969 30.578125 63.5 29.425781 64.484375 29.308594 C 63.691406 30.496094 62.894531 31.683594 62.105469 32.867188 C 59.738281 36.410156 57.316406 40.082031 56.574219 44.273438 C 56.230469 46.230469 56.257812 48.25 55.789062 50.179688 C 55.320312 52.109375 54.203125 54.042969 52.351562 54.761719 C 53.320312 52.902344 54.308594 50.765625 53.605469 48.792969 C 53.03125 47.179688 51.492188 46.160156 50.429688 44.820312 C 49.371094 43.480469 48.976562 41.1875 50.425781 40.296875 C 50.246094 42.742188 48.125 44.507812 46.824219 46.582031 C 44.542969 50.214844 44.800781 54.808594 44.542969 59.089844 C 44.289062 63.371094 43.019531 68.210938 39.183594 70.121094 C 40.636719 68.371094 42.175781 66.089844 41.273438 63.996094 C 40.65625 62.5625 39.101562 61.816406 37.996094 60.710938 C 36.265625 58.980469 35.707031 56.167969 36.652344 53.902344 C 33.835938 57.699219 32.152344 62.328125 31.871094 67.046875 C 31.59375 71.808594 32.671875 76.804688 30.382812 81.585938 C 29.914062 83.238281 29.449219 84.886719 28.980469 86.539062 C 30.570312 80.765625 28.832031 74.199219 24.589844 69.976562 C 22.90625 75.902344 21.199219 82.117188 22.476562 88.148438 C 23.054688 90.859375 24.210938 93.421875 24.742188 96.140625 C 25.277344 98.859375 25.0625 101.945312 23.214844 104.011719 C 23.722656 100.070312 21.828125 96.128906 19.089844 93.253906 C 16.355469 90.375 12.847656 88.382812 9.394531 86.429688 C 11.414062 87.941406 12 90.722656 11.957031 93.246094 C 11.90625 95.769531 11.378906 98.304688 11.785156 100.796875 C 12.351562 104.269531 14.636719 107.175781 16.167969 110.347656 C 18.90625 116.027344 19.191406 122.535156 19.429688 128.835938 C 18.871094 124.5625 16.445312 120.707031 13.371094 117.6875 C 10.296875 114.667969 6.597656 112.378906 2.910156 110.15625 C 5.15625 111.332031 6.226562 113.960938 6.699219 116.453125 C 7.171875 118.945312 7.242188 121.554688 8.277344 123.871094 C 9.640625 126.921875 12.476562 129.035156 14.355469 131.796875 C 17.367188 136.226562 17.679688 141.890625 17.890625 147.246094 C 16.316406 142.390625 14.191406 137.039062 9.5 135.03125 C 8.226562 134.484375 6.84375 134.234375 5.554688 133.71875 C 2.984375 132.683594 0.871094 130.550781 -0.136719 127.964844 C 2.628906 131.113281 0.96875 136.128906 2.382812 140.070312 C 3.785156 143.976562 7.859375 146.101562 10.816406 149.015625 C 16.726562 154.84375 18.039062 163.761719 18.953125 172.019531 C 18.46875 166.539062 12.960938 162.710938 7.535156 161.8125 C 5.550781 161.484375 3.496094 161.429688 1.609375 160.742188 C -0.277344 160.050781 -2.042969 158.511719 -2.238281 156.507812 C 0.0429688 162.304688 2.453125 168.304688 7.003906 172.550781 C 9.511719 174.894531 12.550781 176.578125 15.234375 178.726562 C 20.464844 182.910156 24.253906 188.875 25.816406 195.390625 C 25.480469 192.53125 23.511719 190.074219 21.128906 188.457031 C 18.746094 186.84375 15.964844 185.949219 13.226562 185.070312 C 9.175781 183.773438 5.121094 182.472656 1.070312 181.175781 C 4.035156 181.292969 5.121094 184.996094 6.339844 187.707031 C 8.722656 193.003906 14.117188 196.261719 19.472656 198.5 C 21.527344 199.359375 23.640625 200.128906 25.492188 201.367188 C 28.925781 203.65625 31.152344 207.324219 33.675781 211.882812 C 25.550781 206.039062 15.621094 202.753906 5.617188 202.589844 C 12.371094 207.636719 16.6875 215.921875 24.429688 219.273438 C 27.988281 220.8125 31.960938 221.144531 35.601562 222.480469 C 40.476562 224.269531 44.503906 227.757812 48.410156 231.171875 C 39.382812 224.464844 27.402344 223.730469 16.171875 223.246094 C 24.203125 224.515625 27.71875 234.339844 34.777344 238.371094 C 39.539062 241.085938 45.335938 240.863281 50.800781 241.226562 C 56.261719 241.589844 62.316406 243.027344 65.257812 247.652344 C 60.363281 245.3125 55.042969 242.914062 49.726562 243.957031 C 46.863281 244.519531 44.277344 246.046875 41.441406 246.738281 C 38.609375 247.429688 35.125 247 33.554688 244.535156 C 38.074219 247.308594 42.589844 250.078125 47.109375 252.847656 C 50.054688 254.65625 53.058594 256.488281 56.394531 257.382812 C 61.011719 258.617188 65.890625 257.972656 70.667969 258.007812 C 75.441406 258.046875 80.628906 258.996094 83.816406 262.5625 C 80.175781 261.285156 76.289062 259.992188 72.535156 260.878906 C 70.246094 261.421875 68.230469 262.730469 66.113281 263.757812 C 61.652344 265.921875 56.59375 266.835938 51.652344 266.382812 C 59.28125 268.078125 65.941406 273.605469 73.75 273.804688 C 77.621094 273.902344 81.378906 272.664062 85.183594 271.957031 C 90.40625 270.984375 95.8125 271.015625 101.023438 272.046875 C 97.355469 271.210938 93.140625 270.484375 90.132812 272.746094 C 88.28125 274.144531 87.320312 276.398438 85.851562 278.1875 C 83.53125 281.027344 79.832031 282.671875 76.175781 282.488281 C 83.160156 283.050781 90.253906 283.605469 97.132812 282.28125 C 106.804688 280.417969 116.1875 274.875 125.867188 276.699219 C 120.390625 276.496094 114.949219 279.796875 112.59375 284.746094 C 111.203125 287.664062 110.816406 291.046875 109 293.71875 C 108.132812 291.964844 109.914062 289.890625 111.835938 289.53125 C 113.753906 289.164062 115.695312 289.855469 117.628906 290.136719 C 122.085938 290.773438 126.527344 289.183594 130.75 287.621094 C 132.984375 286.796875 135.34375 285.878906 136.765625 283.964844 C 138.113281 282.152344 138.484375 279.601562 140.273438 278.21875 C 143.6875 275.585938 148.75 279.335938 152.867188 278.058594 C 153.113281 276.953125 153.019531 275.777344 152.609375 274.722656 C 149.035156 274.210938 145.410156 274.183594 142.015625 274.324219 Z M 142.015625 274.324219 " clip-rule="nonzero"/></clipPath><linearGradient x1="73.614855" gradientTransform="matrix(0.371634, 0, 0, 0.37194, -50.084442, -27.411169)" y1="402.516752" x2="616.372237" gradientUnits="userSpaceOnUse" y2="509.163799" id="cf36d11e7b"><stop stop-opacity="1" stop-color="rgb(78.819275%, 61.959839%, 36.468506%)" offset="0"/><stop stop-opacity="1" stop-color="rgb(78.819275%, 61.959839%, 36.468506%)" offset="0.0625"/><stop stop-opacity="1" stop-color="rgb(78.819275%, 61.959839%, 36.468506%)" offset="0.09375"/><stop stop-opacity="1" stop-color="rgb(78.819275%, 61.959839%, 36.468506%)" offset="0.109375"/><stop stop-opacity="1" stop-color="rgb(78.994751%, 62.199402%, 36.59668%)" offset="0.113281"/><stop stop-opacity="1" stop-color="rgb(79.171753%, 62.438965%, 36.724854%)" offset="0.117188"/><stop stop-opacity="1" stop-color="rgb(79.393005%, 62.741089%, 36.886597%)" offset="0.121094"/><stop stop-opacity="1" stop-color="rgb(79.615784%, 63.043213%, 37.04834%)" offset="0.125"/><stop stop-opacity="1" stop-color="rgb(79.837036%, 63.345337%, 37.210083%)" offset="0.128906"/><stop stop-opacity="1" stop-color="rgb(80.059814%, 63.647461%, 37.371826%)" offset="0.132813"/><stop stop-opacity="1" stop-color="rgb(80.281067%, 63.949585%, 37.532043%)" offset="0.136719"/><stop stop-opacity="1" stop-color="rgb(80.503845%, 64.253235%, 37.693787%)" offset="0.140625"/><stop stop-opacity="1" stop-color="rgb(80.726624%, 64.555359%, 37.85553%)" offset="0.144531"/><stop stop-opacity="1" stop-color="rgb(80.949402%, 64.857483%, 38.017273%)" offset="0.148438"/><stop stop-opacity="1" stop-color="rgb(81.170654%, 65.159607%, 38.17749%)" offset="0.152344"/><stop stop-opacity="1" stop-color="rgb(81.393433%, 65.461731%, 38.339233%)" offset="0.15625"/><stop stop-opacity="1" stop-color="rgb(81.614685%, 65.763855%, 38.500977%)" offset="0.160156"/><stop stop-opacity="1" stop-color="rgb(81.837463%, 66.067505%, 38.66272%)" offset="0.164063"/><stop stop-opacity="1" stop-color="rgb(82.058716%, 66.369629%, 38.824463%)" offset="0.167969"/><stop stop-opacity="1" stop-color="rgb(82.281494%, 66.671753%, 38.986206%)" offset="0.171875"/><stop stop-opacity="1" stop-color="rgb(82.502747%, 66.973877%, 39.146423%)" offset="0.175781"/><stop stop-opacity="1" stop-color="rgb(82.725525%, 67.276001%, 39.308167%)" offset="0.179688"/><stop stop-opacity="1" stop-color="rgb(82.952881%, 67.585754%, 39.472961%)" offset="0.183594"/><stop stop-opacity="1" stop-color="rgb(83.180237%, 67.897034%, 39.639282%)" offset="0.1875"/><stop stop-opacity="1" stop-color="rgb(83.47168%, 68.315125%, 39.859009%)" offset="0.191406"/><stop stop-opacity="1" stop-color="rgb(83.764648%, 68.733215%, 40.078735%)" offset="0.195313"/><stop stop-opacity="1" stop-color="rgb(84.056091%, 69.151306%, 40.296936%)" offset="0.199219"/><stop stop-opacity="1" stop-color="rgb(84.34906%, 69.569397%, 40.516663%)" offset="0.203125"/><stop stop-opacity="1" stop-color="rgb(84.642029%, 69.985962%, 40.734863%)" offset="0.207031"/><stop stop-opacity="1" stop-color="rgb(84.934998%, 70.404053%, 40.95459%)" offset="0.210938"/><stop stop-opacity="1" stop-color="rgb(85.22644%, 70.822144%, 41.172791%)" offset="0.214844"/><stop stop-opacity="1" stop-color="rgb(85.519409%, 71.240234%, 41.392517%)" offset="0.21875"/><stop stop-opacity="1" stop-color="rgb(85.810852%, 71.658325%, 41.612244%)" offset="0.222656"/><stop stop-opacity="1" stop-color="rgb(86.103821%, 72.076416%, 41.83197%)" offset="0.226563"/><stop stop-opacity="1" stop-color="rgb(86.395264%, 72.492981%, 42.050171%)" offset="0.230469"/><stop stop-opacity="1" stop-color="rgb(86.688232%, 72.911072%, 42.269897%)" offset="0.234375"/><stop stop-opacity="1" stop-color="rgb(86.981201%, 73.329163%, 42.488098%)" offset="0.238281"/><stop stop-opacity="1" stop-color="rgb(87.27417%, 73.747253%, 42.707825%)" offset="0.242188"/><stop stop-opacity="1" stop-color="rgb(87.565613%, 74.163818%, 42.926025%)" offset="0.246094"/><stop stop-opacity="1" stop-color="rgb(87.858582%, 74.581909%, 43.145752%)" offset="0.25"/><stop stop-opacity="1" stop-color="rgb(88.150024%, 75%, 43.365479%)" offset="0.253906"/><stop stop-opacity="1" stop-color="rgb(88.442993%, 75.418091%, 43.585205%)" offset="0.257812"/><stop stop-opacity="1" stop-color="rgb(88.734436%, 75.836182%, 43.803406%)" offset="0.261719"/><stop stop-opacity="1" stop-color="rgb(89.027405%, 76.254272%, 44.023132%)" offset="0.265625"/><stop stop-opacity="1" stop-color="rgb(89.320374%, 76.670837%, 44.241333%)" offset="0.269531"/><stop stop-opacity="1" stop-color="rgb(89.613342%, 77.088928%, 44.46106%)" offset="0.273438"/><stop stop-opacity="1" stop-color="rgb(89.904785%, 77.507019%, 44.67926%)" offset="0.277344"/><stop stop-opacity="1" stop-color="rgb(90.197754%, 77.92511%, 44.898987%)" offset="0.28125"/><stop stop-opacity="1" stop-color="rgb(90.489197%, 78.343201%, 45.118713%)" offset="0.285156"/><stop stop-opacity="1" stop-color="rgb(90.782166%, 78.761292%, 45.33844%)" offset="0.289063"/><stop stop-opacity="1" stop-color="rgb(91.073608%, 79.177856%, 45.556641%)" offset="0.292969"/><stop stop-opacity="1" stop-color="rgb(91.366577%, 79.595947%, 45.776367%)" offset="0.296875"/><stop stop-opacity="1" stop-color="rgb(91.659546%, 80.014038%, 45.994568%)" offset="0.300781"/><stop stop-opacity="1" stop-color="rgb(91.952515%, 80.432129%, 46.214294%)" offset="0.304688"/><stop stop-opacity="1" stop-color="rgb(92.243958%, 80.85022%, 46.434021%)" offset="0.308594"/><stop stop-opacity="1" stop-color="rgb(92.536926%, 81.268311%, 46.653748%)" offset="0.3125"/><stop stop-opacity="1" stop-color="rgb(92.828369%, 81.684875%, 46.871948%)" offset="0.316406"/><stop stop-opacity="1" stop-color="rgb(93.121338%, 82.102966%, 47.091675%)" offset="0.320312"/><stop stop-opacity="1" stop-color="rgb(93.412781%, 82.521057%, 47.309875%)" offset="0.324219"/><stop stop-opacity="1" stop-color="rgb(93.70575%, 82.939148%, 47.529602%)" offset="0.328125"/><stop stop-opacity="1" stop-color="rgb(94.006348%, 83.372498%, 47.753906%)" offset="0.332031"/><stop stop-opacity="1" stop-color="rgb(94.308472%, 83.805847%, 47.97821%)" offset="0.335937"/><stop stop-opacity="1" stop-color="rgb(94.628906%, 84.275818%, 48.213196%)" offset="0.339844"/><stop stop-opacity="1" stop-color="rgb(94.949341%, 84.747314%, 48.449707%)" offset="0.34375"/><stop stop-opacity="1" stop-color="rgb(95.269775%, 85.217285%, 48.684692%)" offset="0.347656"/><stop stop-opacity="1" stop-color="rgb(95.591736%, 85.688782%, 48.921204%)" offset="0.351562"/><stop stop-opacity="1" stop-color="rgb(95.91217%, 86.160278%, 49.156189%)" offset="0.355469"/><stop stop-opacity="1" stop-color="rgb(96.232605%, 86.631775%, 49.3927%)" offset="0.359375"/><stop stop-opacity="1" stop-color="rgb(96.55304%, 87.101746%, 49.627686%)" offset="0.363281"/><stop stop-opacity="1" stop-color="rgb(96.875%, 87.573242%, 49.862671%)" offset="0.367188"/><stop stop-opacity="1" stop-color="rgb(97.195435%, 88.043213%, 50.097656%)" offset="0.371094"/><stop stop-opacity="1" stop-color="rgb(97.515869%, 88.514709%, 50.334167%)" offset="0.375"/><stop stop-opacity="1" stop-color="rgb(97.836304%, 88.98468%, 50.569153%)" offset="0.378906"/><stop stop-opacity="1" stop-color="rgb(98.158264%, 89.456177%, 50.805664%)" offset="0.382812"/><stop stop-opacity="1" stop-color="rgb(98.478699%, 89.926147%, 51.040649%)" offset="0.386719"/><stop stop-opacity="1" stop-color="rgb(98.799133%, 90.397644%, 51.277161%)" offset="0.390625"/><stop stop-opacity="1" stop-color="rgb(99.119568%, 90.867615%, 51.512146%)" offset="0.394531"/><stop stop-opacity="1" stop-color="rgb(99.441528%, 91.339111%, 51.748657%)" offset="0.398438"/><stop stop-opacity="1" stop-color="rgb(99.720764%, 91.748047%, 52.000427%)" offset="0.402344"/><stop stop-opacity="1" stop-color="rgb(100%, 92.158508%, 52.253723%)" offset="0.40625"/><stop stop-opacity="1" stop-color="rgb(100%, 92.158508%, 52.613831%)" offset="0.410156"/><stop stop-opacity="1" stop-color="rgb(100%, 92.158508%, 52.975464%)" offset="0.414062"/><stop stop-opacity="1" stop-color="rgb(100%, 92.158508%, 53.337097%)" offset="0.417969"/><stop stop-opacity="1" stop-color="rgb(100%, 92.158508%, 53.69873%)" offset="0.421875"/><stop stop-opacity="1" stop-color="rgb(100%, 92.158508%, 54.060364%)" offset="0.425781"/><stop stop-opacity="1" stop-color="rgb(100%, 92.158508%, 54.421997%)" offset="0.429688"/><stop stop-opacity="1" stop-color="rgb(100%, 92.158508%, 54.78363%)" offset="0.433594"/><stop stop-opacity="1" stop-color="rgb(100%, 92.158508%, 55.145264%)" offset="0.4375"/><stop stop-opacity="1" stop-color="rgb(100%, 92.158508%, 55.506897%)" offset="0.441406"/><stop stop-opacity="1" stop-color="rgb(100%, 92.158508%, 55.86853%)" offset="0.445312"/><stop stop-opacity="1" stop-color="rgb(100%, 92.158508%, 56.230164%)" offset="0.449219"/><stop stop-opacity="1" stop-color="rgb(100%, 92.158508%, 56.591797%)" offset="0.453125"/><stop stop-opacity="1" stop-color="rgb(100%, 92.158508%, 56.95343%)" offset="0.457031"/><stop stop-opacity="1" stop-color="rgb(100%, 92.158508%, 57.315063%)" offset="0.460938"/><stop stop-opacity="1" stop-color="rgb(100%, 92.158508%, 57.676697%)" offset="0.464844"/><stop stop-opacity="1" stop-color="rgb(100%, 92.158508%, 58.03833%)" offset="0.46875"/><stop stop-opacity="1" stop-color="rgb(100%, 92.158508%, 58.399963%)" offset="0.472656"/><stop stop-opacity="1" stop-color="rgb(100%, 92.158508%, 58.761597%)" offset="0.476562"/><stop stop-opacity="1" stop-color="rgb(100%, 92.158508%, 59.12323%)" offset="0.480469"/><stop stop-opacity="1" stop-color="rgb(100%, 92.158508%, 59.484863%)" offset="0.484375"/><stop stop-opacity="1" stop-color="rgb(100%, 92.158508%, 59.846497%)" offset="0.488281"/><stop stop-opacity="1" stop-color="rgb(100%, 92.158508%, 60.20813%)" offset="0.492188"/><stop stop-opacity="1" stop-color="rgb(100%, 92.158508%, 60.569763%)" offset="0.496094"/><stop stop-opacity="1" stop-color="rgb(100%, 92.158508%, 60.931396%)" offset="0.5"/><stop stop-opacity="1" stop-color="rgb(100%, 92.158508%, 61.29303%)" offset="0.503906"/><stop stop-opacity="1" stop-color="rgb(100%, 92.158508%, 61.654663%)" offset="0.507812"/><stop stop-opacity="1" stop-color="rgb(100%, 92.158508%, 62.016296%)" offset="0.511719"/><stop stop-opacity="1" stop-color="rgb(100%, 92.158508%, 62.37793%)" offset="0.515625"/><stop stop-opacity="1" stop-color="rgb(100%, 92.158508%, 62.739563%)" offset="0.519531"/><stop stop-opacity="1" stop-color="rgb(100%, 92.158508%, 63.101196%)" offset="0.523438"/><stop stop-opacity="1" stop-color="rgb(100%, 92.158508%, 63.46283%)" offset="0.527344"/><stop stop-opacity="1" stop-color="rgb(100%, 92.158508%, 63.824463%)" offset="0.53125"/><stop stop-opacity="1" stop-color="rgb(100%, 92.158508%, 64.186096%)" offset="0.535156"/><stop stop-opacity="1" stop-color="rgb(100%, 92.158508%, 64.547729%)" offset="0.539062"/><stop stop-opacity="1" stop-color="rgb(100%, 92.158508%, 64.909363%)" offset="0.542969"/><stop stop-opacity="1" stop-color="rgb(100%, 92.158508%, 65.270996%)" offset="0.546875"/><stop stop-opacity="1" stop-color="rgb(100%, 92.158508%, 65.632629%)" offset="0.550781"/><stop stop-opacity="1" stop-color="rgb(100%, 92.158508%, 65.994263%)" offset="0.554688"/><stop stop-opacity="1" stop-color="rgb(100%, 92.158508%, 66.355896%)" offset="0.558594"/><stop stop-opacity="1" stop-color="rgb(100%, 92.158508%, 66.717529%)" offset="0.5625"/><stop stop-opacity="1" stop-color="rgb(100%, 92.158508%, 67.079163%)" offset="0.566406"/><stop stop-opacity="1" stop-color="rgb(100%, 92.158508%, 67.440796%)" offset="0.570312"/><stop stop-opacity="1" stop-color="rgb(99.885559%, 92.018127%, 67.488098%)" offset="0.578125"/><stop stop-opacity="1" stop-color="rgb(99.516296%, 91.567993%, 67.195129%)" offset="0.582031"/><stop stop-opacity="1" stop-color="rgb(99.261475%, 91.256714%, 66.856384%)" offset="0.585938"/><stop stop-opacity="1" stop-color="rgb(99.006653%, 90.943909%, 66.517639%)" offset="0.589844"/><stop stop-opacity="1" stop-color="rgb(98.751831%, 90.632629%, 66.178894%)" offset="0.59375"/><stop stop-opacity="1" stop-color="rgb(98.497009%, 90.32135%, 65.838623%)" offset="0.597656"/><stop stop-opacity="1" stop-color="rgb(98.242188%, 90.010071%, 65.499878%)" offset="0.601562"/><stop stop-opacity="1" stop-color="rgb(97.987366%, 89.697266%, 65.161133%)" offset="0.605469"/><stop stop-opacity="1" stop-color="rgb(97.732544%, 89.385986%, 64.822388%)" offset="0.609375"/><stop stop-opacity="1" stop-color="rgb(97.477722%, 89.073181%, 64.482117%)" offset="0.613281"/><stop stop-opacity="1" stop-color="rgb(97.2229%, 88.761902%, 64.143372%)" offset="0.617188"/><stop stop-opacity="1" stop-color="rgb(96.968079%, 88.450623%, 63.804626%)" offset="0.621094"/><stop stop-opacity="1" stop-color="rgb(96.714783%, 88.139343%, 63.465881%)" offset="0.625"/><stop stop-opacity="1" stop-color="rgb(96.395874%, 87.753296%, 63.049316%)" offset="0.628906"/><stop stop-opacity="1" stop-color="rgb(96.078491%, 87.367249%, 62.634277%)" offset="0.632812"/><stop stop-opacity="1" stop-color="rgb(95.703125%, 86.912537%, 62.149048%)" offset="0.636719"/><stop stop-opacity="1" stop-color="rgb(95.327759%, 86.459351%, 61.663818%)" offset="0.640625"/><stop stop-opacity="1" stop-color="rgb(94.950867%, 86.004639%, 61.177063%)" offset="0.644531"/><stop stop-opacity="1" stop-color="rgb(94.5755%, 85.551453%, 60.691833%)" offset="0.648438"/><stop stop-opacity="1" stop-color="rgb(94.198608%, 85.096741%, 60.205078%)" offset="0.652344"/><stop stop-opacity="1" stop-color="rgb(93.823242%, 84.642029%, 59.719849%)" offset="0.65625"/><stop stop-opacity="1" stop-color="rgb(93.447876%, 84.187317%, 59.234619%)" offset="0.660156"/><stop stop-opacity="1" stop-color="rgb(93.07251%, 83.734131%, 58.74939%)" offset="0.664062"/><stop stop-opacity="1" stop-color="rgb(92.695618%, 83.279419%, 58.262634%)" offset="0.667969"/><stop stop-opacity="1" stop-color="rgb(92.320251%, 82.826233%, 57.777405%)" offset="0.671875"/><stop stop-opacity="1" stop-color="rgb(91.943359%, 82.371521%, 57.290649%)" offset="0.675781"/><stop stop-opacity="1" stop-color="rgb(91.567993%, 81.916809%, 56.80542%)" offset="0.679688"/><stop stop-opacity="1" stop-color="rgb(91.192627%, 81.462097%, 56.32019%)" offset="0.683594"/><stop stop-opacity="1" stop-color="rgb(90.817261%, 81.008911%, 55.834961%)" offset="0.6875"/><stop stop-opacity="1" stop-color="rgb(90.440369%, 80.554199%, 55.348206%)" offset="0.691406"/><stop stop-opacity="1" stop-color="rgb(90.065002%, 80.101013%, 54.862976%)" offset="0.695312"/><stop stop-opacity="1" stop-color="rgb(89.68811%, 79.646301%, 54.376221%)" offset="0.699219"/><stop stop-opacity="1" stop-color="rgb(89.312744%, 79.193115%, 53.890991%)" offset="0.703125"/><stop stop-opacity="1" stop-color="rgb(88.935852%, 78.738403%, 53.405762%)" offset="0.707031"/><stop stop-opacity="1" stop-color="rgb(88.560486%, 78.283691%, 52.920532%)" offset="0.710938"/><stop stop-opacity="1" stop-color="rgb(88.18512%, 77.828979%, 52.433777%)" offset="0.714844"/><stop stop-opacity="1" stop-color="rgb(87.809753%, 77.375793%, 51.948547%)" offset="0.71875"/><stop stop-opacity="1" stop-color="rgb(87.432861%, 76.921082%, 51.461792%)" offset="0.722656"/><stop stop-opacity="1" stop-color="rgb(87.057495%, 76.46637%, 50.976562%)" offset="0.726562"/><stop stop-opacity="1" stop-color="rgb(86.604309%, 75.904846%, 50.367737%)" offset="0.730469"/><stop stop-opacity="1" stop-color="rgb(86.151123%, 75.344849%, 49.758911%)" offset="0.734375"/><stop stop-opacity="1" stop-color="rgb(85.696411%, 74.783325%, 49.150085%)" offset="0.738281"/><stop stop-opacity="1" stop-color="rgb(85.243225%, 74.223328%, 48.54126%)" offset="0.742188"/><stop stop-opacity="1" stop-color="rgb(84.790039%, 73.661804%, 47.932434%)" offset="0.746094"/><stop stop-opacity="1" stop-color="rgb(84.336853%, 73.101807%, 47.325134%)" offset="0.75"/><stop stop-opacity="1" stop-color="rgb(83.882141%, 72.540283%, 46.716309%)" offset="0.753906"/><stop stop-opacity="1" stop-color="rgb(83.428955%, 71.980286%, 46.107483%)" offset="0.757812"/><stop stop-opacity="1" stop-color="rgb(82.975769%, 71.418762%, 45.498657%)" offset="0.761719"/><stop stop-opacity="1" stop-color="rgb(82.522583%, 70.857239%, 44.889832%)" offset="0.765625"/><stop stop-opacity="1" stop-color="rgb(82.069397%, 70.295715%, 44.281006%)" offset="0.769531"/><stop stop-opacity="1" stop-color="rgb(81.616211%, 69.735718%, 43.67218%)" offset="0.773438"/><stop stop-opacity="1" stop-color="rgb(81.161499%, 69.174194%, 43.063354%)" offset="0.777344"/><stop stop-opacity="1" stop-color="rgb(80.708313%, 68.614197%, 42.454529%)" offset="0.78125"/><stop stop-opacity="1" stop-color="rgb(80.255127%, 68.052673%, 41.845703%)" offset="0.785156"/><stop stop-opacity="1" stop-color="rgb(79.801941%, 67.492676%, 41.238403%)" offset="0.789062"/><stop stop-opacity="1" stop-color="rgb(79.348755%, 66.931152%, 40.629578%)" offset="0.792969"/><stop stop-opacity="1" stop-color="rgb(78.895569%, 66.371155%, 40.020752%)" offset="0.796875"/><stop stop-opacity="1" stop-color="rgb(78.440857%, 65.809631%, 39.411926%)" offset="0.800781"/><stop stop-opacity="1" stop-color="rgb(77.987671%, 65.248108%, 38.803101%)" offset="0.804688"/><stop stop-opacity="1" stop-color="rgb(77.534485%, 64.686584%, 38.194275%)" offset="0.808594"/><stop stop-opacity="1" stop-color="rgb(77.081299%, 64.126587%, 37.585449%)" offset="0.8125"/><stop stop-opacity="1" stop-color="rgb(76.626587%, 63.565063%, 36.976624%)" offset="0.816406"/><stop stop-opacity="1" stop-color="rgb(76.173401%, 63.005066%, 36.367798%)" offset="0.820312"/><stop stop-opacity="1" stop-color="rgb(75.720215%, 62.443542%, 35.758972%)" offset="0.824219"/><stop stop-opacity="1" stop-color="rgb(75.267029%, 61.883545%, 35.150146%)" offset="0.828125"/><stop stop-opacity="1" stop-color="rgb(74.813843%, 61.322021%, 34.541321%)" offset="0.832031"/><stop stop-opacity="1" stop-color="rgb(74.360657%, 60.762024%, 33.934021%)" offset="0.835938"/><stop stop-opacity="1" stop-color="rgb(73.905945%, 60.2005%, 33.325195%)" offset="0.839844"/><stop stop-opacity="1" stop-color="rgb(73.452759%, 59.638977%, 32.71637%)" offset="0.84375"/><stop stop-opacity="1" stop-color="rgb(72.999573%, 59.077454%, 32.107544%)" offset="0.847656"/><stop stop-opacity="1" stop-color="rgb(72.546387%, 58.517456%, 31.498718%)" offset="0.851562"/><stop stop-opacity="1" stop-color="rgb(72.053528%, 57.917786%, 30.851746%)" offset="0.855469"/><stop stop-opacity="1" stop-color="rgb(71.560669%, 57.318115%, 30.204773%)" offset="0.859375"/><stop stop-opacity="1" stop-color="rgb(71.038818%, 56.689453%, 29.528809%)" offset="0.863281"/><stop stop-opacity="1" stop-color="rgb(70.516968%, 56.062317%, 28.852844%)" offset="0.867188"/><stop stop-opacity="1" stop-color="rgb(69.995117%, 55.433655%, 28.17688%)" offset="0.871094"/><stop stop-opacity="1" stop-color="rgb(69.473267%, 54.804993%, 27.502441%)" offset="0.875"/><stop stop-opacity="1" stop-color="rgb(68.951416%, 54.176331%, 26.826477%)" offset="0.878906"/><stop stop-opacity="1" stop-color="rgb(68.431091%, 53.547668%, 26.150513%)" offset="0.882812"/><stop stop-opacity="1" stop-color="rgb(67.909241%, 52.919006%, 25.474548%)" offset="0.886719"/><stop stop-opacity="1" stop-color="rgb(67.38739%, 52.290344%, 24.80011%)" offset="0.890625"/><stop stop-opacity="1" stop-color="rgb(66.86554%, 51.661682%, 24.124146%)" offset="0.894531"/><stop stop-opacity="1" stop-color="rgb(66.343689%, 51.034546%, 23.448181%)" offset="0.898438"/><stop stop-opacity="1" stop-color="rgb(65.821838%, 50.405884%, 22.772217%)" offset="0.902344"/><stop stop-opacity="1" stop-color="rgb(65.299988%, 49.777222%, 22.097778%)" offset="0.90625"/><stop stop-opacity="1" stop-color="rgb(64.778137%, 49.14856%, 21.421814%)" offset="0.910156"/><stop stop-opacity="1" stop-color="rgb(64.256287%, 48.519897%, 20.74585%)" offset="0.914062"/><stop stop-opacity="1" stop-color="rgb(63.734436%, 47.891235%, 20.069885%)" offset="0.917969"/><stop stop-opacity="1" stop-color="rgb(63.212585%, 47.262573%, 19.393921%)" offset="0.921875"/><stop stop-opacity="1" stop-color="rgb(62.690735%, 46.633911%, 18.717957%)" offset="0.925781"/><stop stop-opacity="1" stop-color="rgb(62.168884%, 46.006775%, 18.043518%)" offset="0.929688"/><stop stop-opacity="1" stop-color="rgb(61.647034%, 45.378113%, 17.367554%)" offset="0.933594"/><stop stop-opacity="1" stop-color="rgb(61.125183%, 44.749451%, 16.691589%)" offset="0.9375"/><stop stop-opacity="1" stop-color="rgb(60.603333%, 44.120789%, 16.015625%)" offset="0.941406"/><stop stop-opacity="1" stop-color="rgb(60.083008%, 43.492126%, 15.341187%)" offset="0.945312"/><stop stop-opacity="1" stop-color="rgb(59.561157%, 42.863464%, 14.665222%)" offset="0.949219"/><stop stop-opacity="1" stop-color="rgb(59.039307%, 42.234802%, 13.989258%)" offset="0.953125"/><stop stop-opacity="1" stop-color="rgb(58.517456%, 41.60614%, 13.313293%)" offset="0.957031"/><stop stop-opacity="1" stop-color="rgb(57.995605%, 40.979004%, 12.638855%)" offset="0.960938"/><stop stop-opacity="1" stop-color="rgb(57.473755%, 40.350342%, 11.962891%)" offset="0.964844"/><stop stop-opacity="1" stop-color="rgb(56.951904%, 39.72168%, 11.286926%)" offset="0.96875"/><stop stop-opacity="1" stop-color="rgb(56.430054%, 39.093018%, 10.610962%)" offset="0.972656"/><stop stop-opacity="1" stop-color="rgb(55.908203%, 38.464355%, 9.936523%)" offset="0.976562"/><stop stop-opacity="1" stop-color="rgb(55.403137%, 37.857056%, 9.281921%)" offset="0.980469"/><stop stop-opacity="1" stop-color="rgb(54.899597%, 37.249756%, 8.628845%)" offset="0.984375"/><stop stop-opacity="1" stop-color="rgb(54.899597%, 37.249756%, 8.628845%)" offset="1"/></linearGradient></defs><g clip-path="url(#c962239cb8)"><g clip-path="url(#4300ea7ed8)"><path fill="url(#f44fb407d7)" d="M 144.675781 6.542969 L 144.675781 293.71875 L 300 293.71875 L 300 6.542969 Z M 144.675781 6.542969 " fill-rule="nonzero"/></g></g><g clip-path="url(#9c9b92bcc5)"><g clip-path="url(#6be4dc8022)"><path fill="url(#cf36d11e7b)" d="M 0 6.542969 L 0 293.71875 L 153.113281 293.71875 L 153.113281 6.542969 Z M 0 6.542969 " fill-rule="nonzero"/></g></g></svg>